0
SECTION
2
HEADER
9
$INSUNITS
70
4
9
$ACADVER
1
AC1014
9
$HANDSEED
5
FFFF
0
ENDSEC
0
SECTION
2
TABLES
0
TABLE
2
VPORT
5
8
100
AcDbSymbolTable
0
ENDTAB
0
TABLE
2
LTYPE
5
5
100
AcDbSymbolTable
0
LTYPE
5
14
100
AcDbSymbolTableRecord
100
AcDbLinetypeTableRecord
2
BYBLOCK
70
0
0
LTYPE
5
15
100
AcDbSymbolTableRecord
100
AcDbLinetypeTableRecord
2
BYLAYER
70
0
0
ENDTAB
0
TABLE
2
LAYER
5
2
100
AcDbSymbolTable
70
2
0
LAYER
5
50
100
AcDbSymbolTableRecord
100
AcDbLayerTableRecord
2
0
70
0
6
CONTINUOUS
0
ENDTAB
0
TABLE
2
STYLE
5
3
100
AcDbSymbolTable
70
1
0
STYLE
5
11
100
AcDbSymbolTableRecord
100
AcDbTextStyleTableRecord
2
STANDARD
70
0
0
ENDTAB
0
TABLE
2
VIEW
5
6
100
AcDbSymbolTable
70
0
0
ENDTAB
0
TABLE
2
UCS
5
7
100
AcDbSymbolTable
70
0
0
ENDTAB
0
TABLE
2
APPID
5
9
100
AcDbSymbolTable
70
2
0
APPID
5
12
100
AcDbSymbolTableRecord
100
AcDbRegAppTableRecord
2
ACAD
70
0
0
ENDTAB
0
TABLE
2
DIMSTYLE
5
A
100
AcDbSymbolTable
70
1
0
ENDTAB
0
TABLE
2
BLOCK_RECORD
5
1
100
AcDbSymbolTable
70
1
0
BLOCK_RECORD
5
1F
100
AcDbSymbolTableRecord
100
AcDbBlockTableRecord
2
*MODEL_SPACE
0
BLOCK_RECORD
5
1B
100
AcDbSymbolTableRecord
100
AcDbBlockTableRecord
2
*PAPER_SPACE
0
ENDTAB
0
ENDSEC
0
SECTION
2
BLOCKS
0
BLOCK
5
20
100
AcDbEntity
100
AcDbBlockBegin
2
*MODEL_SPACE
0
ENDBLK
5
21
100
AcDbEntity
100
AcDbBlockEnd
0
BLOCK
5
1C
100
AcDbEntity
100
AcDbBlockBegin
2
*PAPER_SPACE
0
ENDBLK
5
1D
100
AcDbEntity
100
AcDbBlockEnd
0
ENDSEC
0
SECTION
2
ENTITIES
0
LWPOLYLINE
5
100
100
AcDbEntity
8
0
100
AcDbPolyline
90
8
70
1
43
0.0
10
2.5249999999999999
20
-3.0249999999999999
42
-0.41421356237309437
10
3.0249999999999999
20
-2.5249999999999999
10
16.024999999999999
20
-2.5250000000000017
42
-0.4142135623730957
10
16.524999999999999
20
-3.0249999999999999
10
16.524999999999999
20
-16.024999999999999
42
-0.41421356237309764
10
16.024999999999999
20
-16.524999999999999
10
3.0249999999999999
20
-16.525000000000002
42
-0.4142135623730937
10
2.5249999999999999
20
-16.024999999999999
0
LWPOLYLINE
5
101
100
AcDbEntity
8
0
100
AcDbPolyline
90
8
70
1
43
0.0
10
26.837499999999999
20
-2.5249999999999999
10
39.837499999999999
20
-2.5249999999999968
42
-0.41421356237309048
10
40.337500000000013
20
-3.0249999999999999
10
40.337499999999991
20
-16.024999999999999
42
-0.41421356237308721
10
39.837499999999999
20
-16.524999999999999
10
26.837499999999999
20
-16.524999999999999
42
-0.41421356237309631
10
26.337499999999999
20
-16.024999999999999
10
26.337499999999999
20
-3.0249999999999999
42
-0.41421356237309537
0
LWPOLYLINE
5
102
100
AcDbEntity
8
0
100
AcDbPolyline
90
8
70
1
43
0.0
10
45.387500000000003
20
-16.024999999999999
10
45.387500000000003
20
-3.0249999999999999
42
-0.41421356237309243
10
45.887499999999989
20
-2.5249999999999972
10
58.887500000000017
20
-2.5250000000000017
42
-0.41421356237310902
10
59.387500000000003
20
-3.0249999999999999
10
59.387500000000003
20
-16.024999999999999
42
-0.41421356237307944
10
58.887500000000017
20
-16.524999999999999
10
45.887500000000003
20
-16.524999999999999
42
-0.41421356237307422
0
LWPOLYLINE
5
103
100
AcDbEntity
8
0
100
AcDbPolyline
90
8
70
1
43
0.0
10
77.9375
20
-16.524999999999999
10
64.9375
20
-16.524999999999999
42
-0.41421356237309764
10
64.4375
20
-16.024999999999999
10
64.4375
20
-3.0249999999999999
42
-0.41421356237309664
10
64.9375
20
-2.524999999999999
10
77.9375
20
-2.5250000000000017
42
-0.41421356237307422
10
78.4375
20
-3.0249999999999999
10
78.4375
20
-16.024999999999999
42
-0.41421356237310153
0
LWPOLYLINE
5
104
100
AcDbEntity
8
0
100
AcDbPolyline
90
8
70
1
43
0.0
10
83.487499999999983
20
-3.0249999999999999
42
-0.41421356237308787
10
83.987499999999983
20
-2.524999999999987
10
96.987500000000011
20
-2.5249999999999928
42
-0.41421356237309437
10
97.487500000000011
20
-3.0249999999999999
10
97.487500000000011
20
-16.024999999999999
42
-0.41421356237310414
10
96.987500000000011
20
-16.524999999999988
10
83.987499999999983
20
-16.524999999999991
42
-0.41421356237307033
10
83.487500000000026
20
-16.024999999999999
0
LWPOLYLINE
5
105
100
AcDbEntity
8
0
100
AcDbPolyline
90
8
70
1
43
0.0
10
107.30000000000001
20
-16.024999999999999
10
107.30000000000001
20
-3.0249999999999999
42
-0.41421356237310608
10
107.80000000000001
20
-2.5250000000000092
10
120.8
20
-2.5249999999999928
42
-0.41421356237307355
10
121.30000000000001
20
-3.0249999999999999
10
121.29999999999998
20
-16.024999999999999
42
-0.41421356237308721
10
120.8
20
-16.525000000000013
10
107.80000000000001
20
-16.525000000000006
42
-0.41421356237309631
0
LWPOLYLINE
5
106
100
AcDbEntity
8
0
100
AcDbPolyline
90
8
70
1
43
0.0
10
140.34999999999999
20
-16.024999999999999
42
-0.41421356237310414
10
139.84999999999999
20
-16.524999999999988
10
126.85000000000001
20
-16.525000000000006
42
-0.41421356237307549
10
126.34999999999999
20
-16.024999999999999
10
126.34999999999999
20
-3.0249999999999999
42
-0.41421356237307488
10
126.85000000000001
20
-2.5249999999999915
10
139.84999999999999
20
-2.5249999999999928
42
-0.41421356237309437
10
140.34999999999999
20
-3.0249999999999999
0
LWPOLYLINE
5
107
100
AcDbEntity
8
0
100
AcDbPolyline
90
8
70
1
43
0.0
10
158.90000000000001
20
-16.524999999999999
10
145.90000000000001
20
-16.525000000000006
42
-0.41421356237307549
10
145.40000000000001
20
-16.024999999999999
10
145.40000000000001
20
-3.0249999999999999
42
-0.41421356237307488
10
145.90000000000001
20
-2.5249999999999915
10
158.90000000000001
20
-2.5249999999999928
42
-0.41421356237309437
10
159.40000000000001
20
-3.0249999999999999
10
159.40000000000001
20
-16.024999999999999
42
-0.41421356237310414
0
LWPOLYLINE
5
108
100
AcDbEntity
8
0
100
AcDbPolyline
90
8
70
1
43
0.0
10
164.95000000000005
20
-2.5249999999999999
10
177.94999999999999
20
-2.5249999999999928
42
-0.41421356237314544
10
178.44999999999999
20
-3.0249999999999999
10
178.44999999999999
20
-16.024999999999999
42
-0.41421356237310153
10
177.94999999999999
20
-16.524999999999999
10
164.95000000000005
20
-16.525000000000006
42
-0.41421356237307294
10
164.44999999999999
20
-16.024999999999999
10
164.44999999999999
20
-3.0249999999999999
42
-0.41421356237307327
0
LWPOLYLINE
5
109
100
AcDbEntity
8
0
100
AcDbPolyline
90
8
70
1
43
0.0
10
188.76249999999999
20
-2.5249999999999999
10
201.76249999999999
20
-2.5249999999999928
42
-0.41421356237314544
10
202.26249999999999
20
-3.0249999999999999
10
202.26249999999999
20
-16.024999999999999
42
-0.41421356237310153
10
201.76249999999999
20
-16.524999999999999
10
188.76249999999999
20
-16.525000000000006
42
-0.41421356237312362
10
188.26249999999993
20
-16.024999999999999
10
188.26249999999999
20
-3.0249999999999999
42
-0.41421356237312396
0
LWPOLYLINE
5
110
100
AcDbEntity
8
0
100
AcDbPolyline
90
8
70
1
43
0.0
10
207.31250000000003
20
-16.024999999999999
10
207.31250000000003
20
-3.0249999999999999
42
-0.41421356237307355
10
207.8125
20
-2.5249999999999999
10
220.8125
20
-2.5249999999999928
42
-0.41421356237314544
10
221.3125
20
-3.0249999999999999
10
221.3125
20
-16.024999999999999
42
-0.41421356237310153
10
220.8125
20
-16.524999999999999
10
207.8125
20
-16.52499999999997
42
-0.41421356237309631
0
LWPOLYLINE
5
111
100
AcDbEntity
8
0
100
AcDbPolyline
90
8
70
1
43
0.0
10
226.36250000000004
20
-3.0249999999999999
42
-0.41421356237307355
10
226.86250000000001
20
-2.5249999999999941
10
239.86250000000001
20
-2.5249999999999928
42
-0.41421356237314544
10
240.36250000000001
20
-3.0249999999999999
10
240.36250000000001
20
-16.024999999999999
42
-0.41421356237310153
10
239.86250000000001
20
-16.524999999999999
10
226.86250000000001
20
-16.52499999999997
42
-0.41421356237309631
10
226.36250000000004
20
-16.024999999999999
0
LWPOLYLINE
5
112
100
AcDbEntity
8
0
100
AcDbPolyline
90
8
70
1
43
0.0
10
263.67500000000001
20
-2.5249999999999928
42
-0.41421356237310608
10
264.17500000000007
20
-3.0249999999999999
10
264.17500000000007
20
-16.024999999999999
42
-0.41421356237307422
10
263.67500000000001
20
-16.525000000000006
10
250.67500000000001
20
-16.525000000000006
42
-0.41421356237312362
10
250.17499999999998
20
-16.024999999999999
10
250.17500000000001
20
-3.0249999999999999
42
-0.41421356237312396
10
250.67500000000001
20
-2.5249999999999999
0
LWPOLYLINE
5
113
100
AcDbEntity
8
0
100
AcDbPolyline
90
8
70
1
43
0.0
10
269.22500000000002
20
-3.0249999999999999
42
-0.41421356237312396
10
269.72500000000002
20
-2.5250000000000146
10
282.72500000000002
20
-2.5249999999999928
42
-0.41421356237314544
10
283.22500000000002
20
-3.0249999999999999
10
283.22500000000002
20
-16.024999999999999
42
-0.41421356237310153
10
282.72500000000002
20
-16.524999999999999
10
269.72500000000002
20
-16.525000000000006
42
-0.41421356237312362
10
269.22500000000002
20
-16.024999999999999
0
LWPOLYLINE
5
114
100
AcDbEntity
8
0
100
AcDbPolyline
90
8
70
1
43
0.0
10
288.27499999999998
20
-16.024999999999999
10
288.27499999999998
20
-3.0249999999999999
42
-0.41421356237307355
10
288.77499999999998
20
-2.5249999999999941
10
301.77499999999998
20
-2.5249999999999928
42
-0.41421356237314544
10
302.27499999999998
20
-3.0249999999999999
10
302.27499999999998
20
-16.024999999999999
42
-0.41421356237310153
10
301.77499999999998
20
-16.52500000000002
10
288.77499999999998
20
-16.52499999999997
42
-0.41421356237309631
0
LWPOLYLINE
5
115
100
AcDbEntity
8
0
100
AcDbPolyline
90
8
70
1
43
0.0
10
3.0249999999999999
20
-40.337500000000013
42
-0.41421356237309209
10
2.5250000000000021
20
-39.837499999999999
10
2.5250000000000017
20
-26.837499999999999
42
-0.4142135623730957
10
3.0249999999999999
20
-26.337499999999999
10
16.024999999999999
20
-26.337499999999999
42
-0.41421356237309631
10
16.525000000000002
20
-26.837499999999999
10
16.525000000000002
20
-39.837499999999999
42
-0.4142135623730937
10
16.024999999999999
20
-40.337500000000013
0
LWPOLYLINE
5
116
100
AcDbEntity
8
0
100
AcDbPolyline
90
8
70
1
43
0.0
10
35.57500000000001
20
-26.837499999999999
10
35.57500000000001
20
-39.837499999999999
42
-0.41421356237309503
10
35.075000000000003
20
-40.337500000000013
10
22.074999999999999
20
-40.337499999999991
42
-0.4142135623730846
10
21.575000000000006
20
-39.837499999999999
10
21.575000000000006
20
-26.837499999999999
42
-0.41421356237308721
10
22.074999999999999
20
-26.337499999999999
10
35.075000000000003
20
-26.337499999999995
42
-0.41421356237309243
0
LWPOLYLINE
5
117
100
AcDbEntity
8
0
100
AcDbPolyline
90
8
70
1
43
0.0
10
41.125
20
-26.337499999999999
10
54.125000000000014
20
-26.337499999999999
42
-0.41421356237311063
10
54.625
20
-26.837499999999999
10
54.625
20
-39.837499999999999
42
-0.41421356237310025
10
54.125000000000014
20
-40.337500000000013
10
41.125
20
-40.337499999999991
42
-0.41421356237308982
10
40.625
20
-39.837499999999999
10
40.625
20
-26.837499999999999
42
-0.41421356237310281
0
LWPOLYLINE
5
118
100
AcDbEntity
8
0
100
AcDbPolyline
90
8
70
1
43
0.0
10
60.174999999999997
20
-40.337499999999991
42
-0.41421356237309243
10
59.675000000000004
20
-39.837499999999999
10
59.675000000000004
20
-26.837499999999999
42
-0.41421356237309764
10
60.174999999999997
20
-26.337499999999995
10
73.174999999999983
20
-26.337499999999999
42
-0.41421356237309764
10
73.674999999999983
20
-26.837499999999999
10
73.674999999999983
20
-39.837499999999999
42
-0.41421356237309243
10
73.174999999999983
20
-40.337500000000013
0
LWPOLYLINE
5
119
100
AcDbEntity
8
0
100
AcDbPolyline
90
8
70
1
43
0.0
10
92.724999999999994
20
-26.837499999999999
10
92.725000000000023
20
-39.837499999999999
42
-0.41421356237308982
10
92.224999999999994
20
-40.337500000000013
10
79.22499999999998
20
-40.337499999999991
42
-0.41421356237308982
10
78.724999999999994
20
-39.837499999999999
10
78.724999999999994
20
-26.837499999999999
42
-0.41421356237309764
10
79.22499999999998
20
-26.337500000000006
10
92.224999999999994
20
-26.337500000000009
42
-0.41421356237311324
0
LWPOLYLINE
5
120
100
AcDbEntity
8
0
100
AcDbPolyline
90
8
70
1
43
0.0
10
111.27500000000001
20
-26.337499999999991
42
-0.41421356237309243
10
111.77500000000002
20
-26.837499999999999
10
111.77500000000002
20
-39.837499999999999
42
-0.41421356237309243
10
111.27500000000001
20
-40.337500000000006
10
98.275000000000006
20
-40.337499999999991
42
-0.4142135623730846
10
97.775000000000034
20
-39.837499999999999
10
97.77500000000002
20
-26.837499999999999
42
-0.41421356237312101
10
98.275000000000006
20
-26.337499999999999
0
LWPOLYLINE
5
121
100
AcDbEntity
8
0
100
AcDbPolyline
90
8
70
1
43
0.0
10
117.32500000000002
20
-40.337500000000013
42
-0.41421356237310802
10
116.82500000000003
20
-39.837499999999999
10
116.82500000000003
20
-26.837499999999999
42
-0.41421356237312101
10
117.32500000000002
20
-26.337499999999999
10
130.32499999999999
20
-26.337499999999991
42
-0.41421356237309243
10
130.82499999999999
20
-26.837499999999999
10
130.82499999999999
20
-39.837499999999999
42
-0.41421356237309243
10
130.32499999999999
20
-40.337500000000006
0
LWPOLYLINE
5
122
100
AcDbEntity
8
0
100
AcDbPolyline
90
8
70
1
43
0.0
10
135.87500000000003
20
-26.837499999999999
42
-0.41421356237309243
10
136.375
20
-26.337499999999995
10
149.375
20
-26.337499999999991
42
-0.41421356237309243
10
149.875
20
-26.837499999999999
10
149.875
20
-39.837499999999999
42
-0.41421356237309243
10
149.375
20
-40.337500000000013
10
136.375
20
-40.337500000000013
42
-0.41421356237306123
10
135.875
20
-39.837499999999999
0
LWPOLYLINE
5
123
100
AcDbEntity
8
0
100
AcDbPolyline
90
8
70
1
43
0.0
10
154.92500000000004
20
-26.837499999999999
42
-0.41421356237309243
10
155.42500000000001
20
-26.337499999999995
10
168.42500000000001
20
-26.337499999999991
42
-0.41421356237310025
10
168.92500000000001
20
-26.837499999999999
10
168.92500000000001
20
-39.837499999999999
42
-0.41421356237313928
10
168.42500000000001
20
-40.337500000000013
10
155.42500000000001
20
-40.337500000000013
42
-0.41421356237306123
10
154.92500000000004
20
-39.837499999999999
0
LWPOLYLINE
5
124
100
AcDbEntity
8
0
100
AcDbPolyline
90
8
70
1
43
0.0
10
187.47499999999999
20
-40.337500000000013
10
174.47500000000005
20
-40.337500000000013
42
-0.41421356237301177
10
173.97500000000005
20
-39.837499999999999
10
173.97500000000005
20
-26.837499999999999
42
-0.41421356237312362
10
174.47500000000005
20
-26.337500000000013
10
187.47499999999999
20
-26.337499999999991
42
-0.41421356237314444
10
187.97499999999999
20
-26.837499999999999
10
187.97499999999999
20
-39.837499999999999
42
-0.41421356237311063
0
LWPOLYLINE
5
125
100
AcDbEntity
8
0
100
AcDbPolyline
90
8
70
1
43
0.0
10
193.52500000000006
20
-40.337500000000013
42
-0.41421356237301177
10
193.02500000000006
20
-39.837499999999999
10
193.02500000000006
20
-26.837499999999999
42
-0.41421356237312362
10
193.52500000000006
20
-26.337499999999999
10
206.52500000000003
20
-26.337500000000034
42
-0.41421356237309243
10
207.02500000000001
20
-26.837499999999999
10
207.02500000000003
20
-39.837499999999999
42
-0.41421356237313928
10
206.52500000000003
20
-40.337500000000013
0
LWPOLYLINE
5
126
100
AcDbEntity
8
0
100
AcDbPolyline
90
8
70
1
43
0.0
10
233.21875000000006
20
-26.837499999999999
10
233.21875000000006
20
-39.837499999999999
42
-0.41421356237308721
10
232.71875
20
-40.337500000000034
10
219.71875
20
-40.337500000000013
42
-0.41421356237311063
10
219.21875000000003
20
-39.837499999999999
10
219.21875
20
-26.837499999999999
42
-0.41421356237310025
10
219.71875
20
-26.337499999999984
10
232.71875
20
-26.337499999999991
42
-0.41421356237307422
0
LWPOLYLINE
5
127
100
AcDbEntity
8
0
100
AcDbPolyline
90
8
70
1
43
0.0
10
250.67500000000001
20
-40.337500000000013
42
-0.41421356237301177
10
250.17500000000001
20
-39.837499999999999
10
250.17500000000001
20
-26.837499999999999
42
-0.41421356237312362
10
250.67500000000001
20
-26.337499999999999
10
263.67500000000001
20
-26.337499999999991
42
-0.4142135623730846
10
264.17500000000007
20
-26.837499999999999
10
264.17500000000007
20
-39.837499999999999
42
-0.41421356237308721
10
263.67500000000001
20
-40.337500000000013
0
LWPOLYLINE
5
128
100
AcDbEntity
8
0
100
AcDbPolyline
90
8
70
1
43
0.0
10
269.72500000000002
20
-26.337499999999999
10
282.72500000000002
20
-26.337499999999991
42
-0.41421356237314444
10
283.22500000000002
20
-26.837499999999999
10
283.22500000000002
20
-39.837499999999999
42
-0.41421356237311063
10
282.72500000000002
20
-40.337500000000034
10
269.72500000000002
20
-40.337500000000013
42
-0.41421356237301177
10
269.22500000000002
20
-39.837499999999999
10
269.22500000000002
20
-26.837499999999999
42
-0.41421356237312362
0
LWPOLYLINE
5
129
100
AcDbEntity
8
0
100
AcDbPolyline
90
8
70
1
43
0.0
10
302.27499999999998
20
-39.837499999999999
42
-0.41421356237311063
10
301.77499999999998
20
-40.337500000000034
10
288.77499999999998
20
-40.337499999999977
42
-0.41421356237310281
10
288.27499999999998
20
-39.837499999999999
10
288.27499999999998
20
-26.837499999999999
42
-0.41421356237307422
10
288.77499999999998
20
-26.337499999999999
10
301.77499999999998
20
-26.337499999999991
42
-0.41421356237314444
10
302.27499999999998
20
-26.837499999999999
0
LWPOLYLINE
5
130
100
AcDbEntity
8
0
100
AcDbPolyline
90
8
70
1
43
0.0
10
18.90625
20
-58.887500000000017
42
-0.41421356237311063
10
18.40625
20
-59.387500000000003
10
5.40625
20
-59.387500000000003
42
-0.41421356237308266
10
4.90625
20
-58.887500000000017
10
4.9062500000000018
20
-45.887500000000003
42
-0.41421356237308071
10
5.40625
20
-45.387499999999996
10
18.40625
20
-45.387500000000003
42
-0.41421356237310153
10
18.90625
20
-45.887500000000003
0
LWPOLYLINE
5
131
100
AcDbEntity
8
0
100
AcDbPolyline
90
8
70
1
43
0.0
10
40.337499999999991
20
-58.887500000000017
42
-0.41421356237307944
10
39.837499999999999
20
-59.387500000000003
10
26.837499999999999
20
-59.387500000000003
42
-0.41421356237307944
10
26.337499999999999
20
-58.887500000000017
10
26.337499999999999
20
-45.887500000000003
42
-0.41421356237308204
10
26.837499999999999
20
-45.387500000000003
10
39.837499999999999
20
-45.387500000000003
42
-0.41421356237308982
10
40.337500000000013
20
-45.887500000000003
0
LWPOLYLINE
5
132
100
AcDbEntity
8
0
100
AcDbPolyline
90
8
70
1
43
0.0
10
45.887500000000003
20
-45.387500000000003
10
58.887500000000017
20
-45.387500000000003
42
-0.41421356237311063
10
59.387500000000003
20
-45.887500000000003
10
59.387500000000003
20
-58.887500000000017
42
-0.41421356237307422
10
58.887500000000017
20
-59.387500000000003
10
45.887500000000003
20
-59.387500000000003
42
-0.41421356237307422
10
45.387499999999996
20
-58.887500000000017
10
45.387500000000003
20
-45.887500000000003
42
-0.41421356237309503
0
LWPOLYLINE
5
133
100
AcDbEntity
8
0
100
AcDbPolyline
90
8
70
1
43
0.0
10
64.4375
20
-45.887500000000003
42
-0.4142135623730846
10
64.9375
20
-45.387500000000003
10
77.9375
20
-45.387500000000003
42
-0.41421356237309503
10
78.4375
20
-45.887500000000003
10
78.4375
20
-58.887500000000017
42
-0.41421356237311063
10
77.9375
20
-59.387500000000003
10
64.9375
20
-59.387500000000003
42
-0.41421356237311063
10
64.4375
20
-58.887500000000017
0
LWPOLYLINE
5
134
100
AcDbEntity
8
0
100
AcDbPolyline
90
8
70
1
43
0.0
10
83.487500000000026
20
-58.887500000000017
10
83.487499999999983
20
-45.887500000000003
42
-0.4142135623730846
10
83.987499999999983
20
-45.387499999999996
10
96.987500000000011
20
-45.387500000000003
42
-0.41421356237308982
10
97.487500000000011
20
-45.887500000000003
10
97.487500000000011
20
-58.887500000000017
42
-0.41421356237310542
10
96.987500000000011
20
-59.387500000000003
10
83.987499999999983
20
-59.387500000000003
42
-0.41421356237309503
0
LWPOLYLINE
5
135
100
AcDbEntity
8
0
100
AcDbPolyline
90
8
70
1
43
0.0
10
102.53749999999999
20
-45.887500000000003
42
-0.41421356237308982
10
103.03750000000001
20
-45.387500000000003
10
116.03749999999999
20
-45.387500000000003
42
-0.414213562373069
10
116.53750000000001
20
-45.887500000000003
10
116.53750000000001
20
-58.887500000000017
42
-0.41421356237306384
10
116.03749999999999
20
-59.387500000000003
10
103.03750000000001
20
-59.387500000000024
42
-0.41421356237310025
10
102.53749999999999
20
-58.887500000000017
0
LWPOLYLINE
5
136
100
AcDbEntity
8
0
100
AcDbPolyline
90
8
70
1
43
0.0
10
135.58750000000001
20
-58.887500000000017
42
-0.41421356237306384
10
135.08750000000001
20
-59.387500000000003
10
122.08750000000002
20
-59.387500000000024
42
-0.41421356237310025
10
121.58750000000001
20
-58.887500000000017
10
121.58750000000001
20
-45.887500000000003
42
-0.41421356237308982
10
122.08750000000002
20
-45.387500000000003
10
135.08750000000001
20
-45.387500000000003
42
-0.414213562373069
10
135.58750000000001
20
-45.887500000000003
0
LWPOLYLINE
5
137
100
AcDbEntity
8
0
100
AcDbPolyline
90
8
70
1
43
0.0
10
141.13749999999999
20
-59.387500000000024
42
-0.41421356237310025
10
140.63749999999999
20
-58.887500000000017
10
140.63749999999999
20
-45.887500000000003
42
-0.41421356237308982
10
141.13749999999999
20
-45.387500000000003
10
154.13749999999999
20
-45.38750000000001
42
-0.41421356237311585
10
154.63749999999999
20
-45.887500000000003
10
154.63750000000005
20
-58.887500000000017
42
-0.4142135623730846
10
154.13749999999999
20
-59.387500000000003
0
LWPOLYLINE
5
138
100
AcDbEntity
8
0
100
AcDbPolyline
90
8
70
1
43
0.0
10
160.1875
20
-59.387500000000024
42
-0.41421356237310025
10
159.6875
20
-58.887500000000017
10
159.6875
20
-45.887500000000003
42
-0.41421356237308982
10
160.1875
20
-45.387500000000003
10
173.1875
20
-45.387500000000003
42
-0.41421356237312101
10
173.68750000000003
20
-45.887500000000003
10
173.68750000000003
20
-58.887500000000017
42
-0.41421356237312623
10
173.1875
20
-59.387500000000003
0
LWPOLYLINE
5
139
100
AcDbEntity
8
0
100
AcDbPolyline
90
8
70
1
43
0.0
10
192.23750000000001
20
-59.387500000000003
10
179.23750000000001
20
-59.387500000000024
42
-0.41421356237314705
10
178.73750000000001
20
-58.887500000000017
10
178.73750000000001
20
-45.887500000000003
42
-0.4142135623730846
10
179.23749999999998
20
-45.387499999999974
10
192.23750000000001
20
-45.387500000000003
42
-0.41421356237311063
10
192.73750000000007
20
-45.887500000000003
10
192.73750000000007
20
-58.887500000000017
42
-0.41421356237307422
0
LWPOLYLINE
5
140
100
AcDbEntity
8
0
100
AcDbPolyline
90
8
70
1
43
0.0
10
211.78750000000002
20
-45.887500000000003
10
211.78750000000002
20
-58.887500000000017
42
-0.41421356237312101
10
211.28749999999999
20
-59.387499999999996
10
198.28749999999999
20
-59.387499999999989
42
-0.41421356237310025
10
197.78750000000002
20
-58.887500000000017
10
197.78750000000002
20
-45.887500000000003
42
-0.41421356237304818
10
198.28749999999999
20
-45.387500000000003
10
211.28749999999999
20
-45.387500000000003
42
-0.41421356237313667
0
LWPOLYLINE
5
141
100
AcDbEntity
8
0
100
AcDbPolyline
90
8
70
1
43
0.0
10
222.10000000000002
20
-45.387500000000003
10
235.10000000000002
20
-45.387500000000003
42
-0.41421356237313667
10
235.60000000000002
20
-45.887500000000003
10
235.60000000000002
20
-58.887500000000017
42
-0.41421356237312101
10
235.10000000000002
20
-59.387499999999996
10
222.10000000000002
20
-59.387500000000024
42
-0.41421356237312623
10
221.59999999999997
20
-58.887500000000017
10
221.59999999999999
20
-45.887500000000003
42
-0.41421356237312101
0
LWPOLYLINE
5
142
100
AcDbEntity
8
0
100
AcDbPolyline
90
8
70
1
43
0.0
10
9.6687499999999993
20
-77.9375
10
9.6687499999999993
20
-64.9375
42
-0.41421356237309764
10
10.168749999999999
20
-64.4375
10
23.168749999999999
20
-64.4375
42
-0.41421356237309764
10
23.668750000000003
20
-64.9375
10
23.668749999999999
20
-77.9375
42
-0.41421356237307161
10
23.168749999999999
20
-78.4375
10
10.168749999999999
20
-78.4375
42
-0.41421356237310414
0
LWPOLYLINE
5
143
100
AcDbEntity
8
0
100
AcDbPolyline
90
8
70
1
43
0.0
10
49.362500000000004
20
-78.4375
10
36.362499999999997
20
-78.4375
42
-0.41421356237310025
10
35.862499999999997
20
-77.9375
10
35.862500000000011
20
-64.9375
42
-0.41421356237310802
10
36.362499999999997
20
-64.4375
10
49.362500000000004
20
-64.4375
42
-0.4142135623730846
10
49.862499999999997
20
-64.9375
10
49.862499999999997
20
-77.9375
42
-0.41421356237309503
0
LWPOLYLINE
5
144
100
AcDbEntity
8
0
100
AcDbPolyline
90
8
70
1
43
0.0
10
68.412499999999994
20
-78.4375
10
55.412500000000016
20
-78.4375
42
-0.41421356237307944
10
54.912500000000009
20
-77.9375
10
54.912500000000009
20
-64.9375
42
-0.41421356237313145
10
55.412500000000016
20
-64.4375
10
68.412499999999994
20
-64.4375
42
-0.4142135623730846
10
68.912499999999994
20
-64.9375
10
68.912499999999994
20
-77.9375
42
-0.41421356237309503
0
LWPOLYLINE
5
145
100
AcDbEntity
8
0
100
AcDbPolyline
90
8
70
1
43
0.0
10
74.462500000000006
20
-64.4375
10
87.46250000000002
20
-64.437500000000014
42
-0.41421356237311585
10
87.962500000000006
20
-64.9375
10
87.962500000000006
20
-77.9375
42
-0.4142135623730846
10
87.46250000000002
20
-78.437500000000014
10
74.462500000000006
20
-78.4375
42
-0.41421356237309503
10
73.962500000000006
20
-77.9375
10
73.962500000000006
20
-64.9375
42
-0.41421356237310542
0
LWPOLYLINE
5
146
100
AcDbEntity
8
0
100
AcDbPolyline
90
8
70
1
43
0.0
10
106.51250000000003
20
-78.4375
10
93.512500000000003
20
-78.437499999999986
42
-0.41421356237311585
10
93.012500000000017
20
-77.9375
10
93.012500000000017
20
-64.9375
42
-0.41421356237314189
10
93.512500000000003
20
-64.4375
10
106.51250000000003
20
-64.4375
42
-0.41421356237310542
10
107.01250000000002
20
-64.9375
10
107.01250000000002
20
-77.9375
42
-0.4142135623730846
0
LWPOLYLINE
5
147
100
AcDbEntity
8
0
100
AcDbPolyline
90
8
70
1
43
0.0
10
112.56250000000001
20
-64.4375
10
125.5625
20
-64.4375
42
-0.41421356237307422
10
126.0625
20
-64.9375
10
126.06250000000001
20
-77.9375
42
-0.41421356237305862
10
125.56250000000003
20
-78.4375
10
112.56250000000001
20
-78.437500000000014
42
-0.41421356237310542
10
112.0625
20
-77.9375
10
112.0625
20
-64.9375
42
-0.41421356237311585
0
LWPOLYLINE
5
148
100
AcDbEntity
8
0
100
AcDbPolyline
90
8
70
1
43
0.0
10
144.61250000000001
20
-78.4375
10
131.61250000000001
20
-78.437500000000014
42
-0.41421356237310542
10
131.11250000000001
20
-77.9375
10
131.11250000000001
20
-64.9375
42
-0.41421356237311585
10
131.61250000000001
20
-64.4375
10
144.61250000000001
20
-64.4375
42
-0.41421356237307422
10
145.11250000000001
20
-64.9375
10
145.11250000000001
20
-77.9375
42
-0.414213562373069
0
LWPOLYLINE
5
149
100
AcDbEntity
8
0
100
AcDbPolyline
90
8
70
1
43
0.0
10
150.16249999999999
20
-77.9375
10
150.16249999999999
20
-64.9375
42
-0.41421356237311585
10
150.66249999999999
20
-64.4375
10
163.66250000000005
20
-64.4375
42
-0.41421356237314189
10
164.16250000000005
20
-64.9375
10
164.16250000000005
20
-77.9375
42
-0.4142135623730846
10
163.66250000000008
20
-78.437500000000028
10
150.66249999999999
20
-78.437500000000014
42
-0.41421356237310542
0
LWPOLYLINE
5
150
100
AcDbEntity
8
0
100
AcDbPolyline
90
8
70
1
43
0.0
10
169.21250000000001
20
-64.9375
42
-0.41421356237310025
10
169.71250000000001
20
-64.437499999999986
10
182.71250000000006
20
-64.4375
42
-0.41421356237310542
10
183.21250000000003
20
-64.9375
10
183.21250000000003
20
-77.9375
42
-0.414213562373069
10
182.71250000000006
20
-78.4375
10
169.71250000000001
20
-78.437500000000014
42
-0.41421356237311063
10
169.21250000000001
20
-77.9375
0
LWPOLYLINE
5
151
100
AcDbEntity
8
0
100
AcDbPolyline
90
8
70
1
43
0.0
10
202.26249999999999
20
-77.9375
42
-0.4142135623730846
10
201.76250000000005
20
-78.437500000000028
10
188.76249999999999
20
-78.437500000000014
42
-0.41421356237301699
10
188.26249999999999
20
-77.9375
10
188.26249999999999
20
-64.9375
42
-0.41421356237313145
10
188.76249999999999
20
-64.4375
10
201.76249999999999
20
-64.4375
42
-0.41421356237314189
10
202.26249999999999
20
-64.9375
0
LWPOLYLINE
5
152
100
AcDbEntity
8
0
100
AcDbPolyline
90
8
70
1
43
0.0
10
207.8125
20
-64.4375
10
220.8125
20
-64.4375
42
-0.41421356237314189
10
221.3125
20
-64.9375
10
221.3125
20
-77.9375
42
-0.4142135623730846
10
220.81250000000006
20
-78.437500000000028
10
207.8125
20
-78.437499999999972
42
-0.41421356237310025
10
207.31250000000003
20
-77.9375
10
207.31250000000003
20
-64.9375
42
-0.41421356237307422
0
LWPOLYLINE
5
153
100
AcDbEntity
8
0
100
AcDbPolyline
90
8
70
1
43
0.0
10
226.86250000000001
20
-78.437499999999972
42
-0.41421356237310025
10
226.36250000000004
20
-77.9375
10
226.36250000000004
20
-64.9375
42
-0.41421356237307422
10
226.86250000000001
20
-64.4375
10
239.86250000000001
20
-64.4375
42
-0.41421356237314189
10
240.36250000000001
20
-64.9375
10
240.36250000000001
20
-77.9375
42
-0.4142135623730846
10
239.86250000000007
20
-78.437500000000028
0
LWPOLYLINE
5
154
100
AcDbEntity
8
0
100
AcDbPolyline
90
8
70
1
43
0.0
10
269.72500000000002
20
-78.437500000000014
42
-0.41421356237301699
10
269.22500000000002
20
-77.9375
10
269.22500000000002
20
-64.9375
42
-0.41421356237313145
10
269.72500000000002
20
-64.4375
10
282.72500000000002
20
-64.4375
42
-0.41421356237314189
10
283.22500000000002
20
-64.9375
10
283.22500000000002
20
-77.9375
42
-0.4142135623730846
10
282.72500000000008
20
-78.437500000000028
0
LWPOLYLINE
5
155
100
AcDbEntity
8
0
100
AcDbPolyline
90
8
70
1
43
0.0
10
18.40625
20
-97.487500000000011
10
5.4062499999999991
20
-97.487500000000011
42
-0.4142135623731048
10
4.90625
20
-96.987500000000011
10
4.9062500000000107
20
-83.987499999999983
42
-0.41421356237310936
10
5.40625
20
-83.487500000000011
10
18.40625
20
-83.487499999999983
42
-0.41421356237308721
10
18.90625
20
-83.987499999999983
10
18.906250000000007
20
-96.987500000000011
42
-0.41421356237309631
0
LWPOLYLINE
5
156
100
AcDbEntity
8
0
100
AcDbPolyline
90
8
70
1
43
0.0
10
39.837499999999999
20
-83.487499999999983
42
-0.41421356237309243
10
40.33750000000002
20
-83.987499999999983
10
40.337500000000013
20
-96.987500000000011
42
-0.41421356237309243
10
39.837499999999999
20
-97.487500000000011
10
26.837499999999999
20
-97.487500000000011
42
-0.41421356237310542
10
26.337499999999999
20
-96.987500000000011
10
26.337500000000009
20
-83.987499999999983
42
-0.41421356237310802
10
26.837499999999999
20
-83.487500000000011
0
LWPOLYLINE
5
157
100
AcDbEntity
8
0
100
AcDbPolyline
90
8
70
1
43
0.0
10
59.387500000000024
20
-96.987500000000011
42
-0.41421356237310025
10
58.887500000000017
20
-97.487500000000011
10
45.887500000000003
20
-97.487500000000011
42
-0.41421356237308982
10
45.387500000000003
20
-96.987500000000011
10
45.38750000000001
20
-83.987499999999983
42
-0.41421356237309503
10
45.887500000000003
20
-83.487500000000026
10
58.887500000000017
20
-83.487499999999983
42
-0.41421356237309503
10
59.387500000000003
20
-83.987499999999983
0
LWPOLYLINE
5
158
100
AcDbEntity
8
0
100
AcDbPolyline
90
8
70
1
43
0.0
10
127.94375000000001
20
-97.487500000000011
10
114.94374999999999
20
-97.487500000000011
42
-0.41421356237310542
10
114.44375000000001
20
-96.987500000000011
10
114.44375000000001
20
-83.987499999999983
42
-0.41421356237309503
10
114.94374999999999
20
-83.487500000000026
10
127.94375000000001
20
-83.487500000000026
42
-0.41421356237309503
10
128.44374999999999
20
-83.987499999999983
10
128.44375000000002
20
-96.987500000000011
42
-0.41421356237312623
0
LWPOLYLINE
5
159
100
AcDbEntity
8
0
100
AcDbPolyline
90
8
70
1
43
0.0
10
74.44374999999998
20
-84.487500000000026
42
-0.41421356237307944
10
74.94374999999998
20
-84.987499999999983
10
74.943750000000023
20
-98.987499999999997
42
-0.41421356237311585
10
74.44374999999998
20
-99.487500000000011
10
68.443749999999994
20
-99.487500000000011
42
-0.41421356237311585
10
67.943749999999994
20
-98.987499999999997
10
67.943750000000009
20
-84.987499999999997
42
-0.41421356237310025
10
68.443749999999994
20
-84.487500000000026
0
LWPOLYLINE
5
160
100
AcDbEntity
8
0
100
AcDbPolyline
90
8
70
1
43
0.0
10
174.94375000000005
20
-98.987499999999997
42
-0.41421356237313667
10
174.44375000000005
20
-99.487500000000011
10
168.44374999999999
20
-99.487500000000011
42
-0.41421356237310542
10
167.94374999999999
20
-98.987499999999997
10
167.94375000000005
20
-84.987499999999997
42
-0.41421356237304302
10
168.44374999999999
20
-84.487500000000011
10
174.44375000000005
20
-84.487499999999983
42
-0.41421356237314705
10
174.94375000000005
20
-84.987499999999997
0
LWPOLYLINE
5
161
100
AcDbEntity
8
0
100
AcDbPolyline
90
8
70
1
43
0.0
10
197.50000000000003
20
-96.987500000000011
42
-0.41421356237310542
10
197.00000000000003
20
-97.487500000000026
10
184.00000000000003
20
-97.487500000000011
42
-0.41421356237314705
10
183.5
20
-96.987500000000011
10
183.5
20
-83.987499999999983
42
-0.41421356237304302
10
184
20
-83.487500000000026
10
197.00000000000003
20
-83.487500000000026
42
-0.41421356237309503
10
197.5
20
-83.987499999999983
0
LWPOLYLINE
5
162
100
AcDbEntity
8
0
100
AcDbPolyline
90
8
70
1
43
0.0
10
202.55000000000001
20
-96.987500000000011
10
202.55000000000001
20
-83.987499999999983
42
-0.41421356237309503
10
203.05000000000007
20
-83.487500000000026
10
216.05000000000004
20
-83.487500000000026
42
-0.41421356237309503
10
216.55000000000001
20
-83.987499999999983
10
216.55000000000004
20
-96.987500000000011
42
-0.41421356237310542
10
216.05000000000004
20
-97.487500000000011
10
203.05000000000007
20
-97.487500000000011
42
-0.41421356237307422
0
LWPOLYLINE
5
163
100
AcDbEntity
8
0
100
AcDbPolyline
90
8
70
1
43
0.0
10
237.48125000000002
20
-83.487500000000026
42
-0.41421356237309503
10
237.98124999999999
20
-83.987499999999983
10
237.98124999999999
20
-96.987500000000011
42
-0.4142135623730846
10
237.48125000000002
20
-97.487500000000011
10
224.48125000000002
20
-97.487500000000011
42
-0.41421356237314705
10
223.98124999999999
20
-96.987500000000011
10
223.98124999999999
20
-83.987499999999983
42
-0.41421356237306384
10
224.48125000000002
20
-83.487500000000026
0
LWPOLYLINE
5
164
100
AcDbEntity
8
0
100
AcDbPolyline
90
8
70
1
43
0.0
10
263.67500000000001
20
-83.487499999999983
42
-0.41421356237306384
10
264.17500000000007
20
-83.987499999999983
10
264.17500000000007
20
-96.987500000000011
42
-0.41421356237307422
10
263.67500000000001
20
-97.487500000000011
10
250.67500000000001
20
-97.487500000000011
42
-0.41421356237310542
10
250.17500000000001
20
-96.987500000000011
10
250.1750000000001
20
-83.987499999999983
42
-0.4142135623730222
10
250.67500000000001
20
-83.487500000000026
0
LWPOLYLINE
5
165
100
AcDbEntity
8
0
100
AcDbPolyline
90
8
70
1
43
0.0
10
283.22500000000002
20
-83.987499999999983
10
283.22500000000002
20
-96.987500000000011
42
-0.41421356237313667
10
282.72500000000002
20
-97.487500000000011
10
269.72500000000002
20
-97.487500000000011
42
-0.41421356237310542
10
269.22500000000002
20
-96.987500000000011
10
269.22500000000008
20
-83.987499999999983
42
-0.4142135623730222
10
269.72500000000002
20
-83.487500000000026
10
282.72500000000002
20
-83.487499999999983
42
-0.41421356237312623
0
LWPOLYLINE
5
166
100
AcDbEntity
8
0
100
AcDbPolyline
90
8
70
1
43
0.0
10
302.27499999999998
20
-96.987500000000011
42
-0.41421356237313667
10
301.77499999999998
20
-97.487500000000011
10
288.77499999999998
20
-97.487499999999997
42
-0.41421356237311585
10
288.27499999999998
20
-96.987500000000011
10
288.27499999999998
20
-83.987499999999983
42
-0.41421356237309503
10
288.77499999999998
20
-83.487500000000026
10
301.77499999999998
20
-83.487499999999983
42
-0.41421356237312623
10
302.27499999999998
20
-83.987499999999983
0
LINE
5
167
100
AcDbEntity
8
0
100
AcDbLine
10
236.36250000000004
20
3.0000000000000004
30
0
11
236.36250000000004
21
0
31
0
0
ARC
5
168
100
AcDbEntity
8
0
100
AcDbCircle
10
-8.5249999999999542
20
-103.01250000000005
30
0
40
1.9999999999999574
210
0
220
-0
230
-1
100
AcDbArc
50
-90.000000000001265
51
0
0
LWPOLYLINE
5
169
100
AcDbEntity
8
0
100
AcDbPolyline
90
12
70
1
43
0.0
10
304.80000000000007
20
-98.012500000000017
42
-0.41421356237309764
10
302.80000000000007
20
-100.01250000000002
10
298.27499999999998
20
-100.0125
10
6.5250000000000004
20
-100.0125
10
2
20
-100.0125
42
-0.41421356237309637
10
-1.9428902930940239e-15
20
-98.012500000000017
10
0
20
-1.9999999999999929
42
-0.41421356237309431
10
2
20
0
10
6.5250000000000004
20
0
10
298.27499999999998
20
0
10
302.80000000000007
20
-4.163336342344337e-15
42
-0.41421356237310392
10
304.80000000000007
20
-1.9999999999999751
0
LINE
5
170
100
AcDbEntity
8
0
100
AcDbLine
10
236.36250000000004
20
0
30
0
11
292.27499999999998
21
0
31
0
0
LINE
5
171
100
AcDbEntity
8
0
100
AcDbLine
10
230.36250000000001
20
-100.0125
30
0
11
12.525000000000013
21
-100.0125
31
0
0
LINE
5
172
100
AcDbEntity
8
0
100
AcDbLine
10
6.5250000000000004
20
0
30
0
11
6.5250000000000004
21
3.0000000745058064
31
0
0
ARC
5
173
100
AcDbEntity
8
0
100
AcDbCircle
10
-294.27499999999998
20
-103.01250000000003
30
0
40
1.9999999999999929
210
-0
220
-0
230
-1
100
AcDbArc
50
-90
51
0
0
ARC
5
174
100
AcDbEntity
8
0
100
AcDbCircle
10
-234.36249999999995
20
-103.01249999999997
30
0
40
2.0000000000000284
210
0
220
-0
230
-1
100
AcDbArc
50
180
51
269.99999999999835
0
ARC
5
175
100
AcDbEntity
8
0
100
AcDbCircle
10
-8.524999999999995
20
3.0000000745058104
30
0
40
1.999999999999994
210
-0
220
0
230
-1
100
AcDbArc
50
0
51
90.000000000000142
0
LINE
5
176
100
AcDbEntity
8
0
100
AcDbLine
10
12.525000000000013
20
-100.0125
30
0
11
12.525000000000004
21
-103.01250000000003
31
0
0
ARC
5
177
100
AcDbEntity
8
0
100
AcDbCircle
10
-234.36249999999998
20
2.9999999999999543
30
0
40
2.0000000000000622
210
0
220
0
230
-1
100
AcDbArc
50
90.00000000000081
51
180
0
LINE
5
178
100
AcDbEntity
8
0
100
AcDbLine
10
230.36250000000001
20
-103.01250000000003
30
0
11
230.36250000000001
21
-100.0125
31
0
0
ARC
5
179
100
AcDbEntity
8
0
100
AcDbCircle
10
-10.525000000000002
20
3.0000000745058033
30
0
40
2.0000000000000018
210
0
220
0
230
-1
100
AcDbArc
50
89.999999999999943
51
180
0
LINE
5
180
100
AcDbEntity
8
0
100
AcDbLine
10
298.27499999999998
20
-100.0125
30
0
11
298.27499999999992
21
-103.01250000000003
31
0
0
LINE
5
181
100
AcDbEntity
8
0
100
AcDbLine
10
6.5249999999999977
20
-103.01250000000003
30
0
11
6.5250000000000004
21
-100.0125
31
0
0
LINE
5
182
100
AcDbEntity
8
0
100
AcDbLine
10
12.525000000000002
20
0
30
0
11
230.36250000000001
21
0
31
0
0
LINE
5
183
100
AcDbEntity
8
0
100
AcDbLine
10
12.525000000000004
20
3.0000000745058069
30
0
11
12.525000000000002
21
0
31
0
0
ARC
5
184
100
AcDbEntity
8
0
100
AcDbCircle
10
-232.36250000000001
20
3.0000000000000115
30
0
40
1.9999999999999929
210
-0
220
0
230
-1
100
AcDbArc
50
0
51
90
0
LINE
5
185
100
AcDbEntity
8
0
100
AcDbLine
10
292.27499999999998
20
-103.01250000000003
30
0
11
292.27499999999998
21
-100.0125
31
0
0
ARC
5
186
100
AcDbEntity
8
0
100
AcDbCircle
10
-232.36250000000001
20
-103.01250000000003
30
0
40
1.9999999999999929
210
-0
220
-0
230
-1
100
AcDbArc
50
-90
51
0
0
LINE
5
187
100
AcDbEntity
8
0
100
AcDbLine
10
298.27499999999998
20
3.0000000000000071
30
0
11
298.27499999999998
21
0
31
0
0
LINE
5
188
100
AcDbEntity
8
0
100
AcDbLine
10
292.27499999999998
20
0
30
0
11
292.27499999999998
21
3.0000000000000004
31
0
0
LINE
5
189
100
AcDbEntity
8
0
100
AcDbLine
10
230.36250000000001
20
0
30
0
11
230.36250000000001
21
3.0000000000000071
31
0
0
ARC
5
190
100
AcDbEntity
8
0
100
AcDbCircle
10
-294.27499999999998
20
3.0000000000000031
30
0
40
1.9999999999999929
210
-0
220
0
230
-1
100
AcDbArc
50
0
51
90
0
ARC
5
191
100
AcDbEntity
8
0
100
AcDbCircle
10
-296.27500000000003
20
3.0000000000000409
30
0
40
1.9999999999999756
210
0
220
0
230
-1
100
AcDbArc
50
89.99999999999838
51
180
0
ARC
5
192
100
AcDbEntity
8
0
100
AcDbCircle
10
-296.27499999999992
20
-103.01249999999997
30
0
40
2.0000000000000284
210
0
220
-0
230
-1
100
AcDbArc
50
180
51
269.99999999999835
0
LINE
5
193
100
AcDbEntity
8
0
100
AcDbLine
10
292.27499999999998
20
-100.0125
30
0
11
236.36250000000004
21
-100.0125
31
0
0
ARC
5
194
100
AcDbEntity
8
0
100
AcDbCircle
10
-10.525
20
-103.01250000000002
30
0
40
2.000000000000004
210
0
220
-0
230
-1
100
AcDbArc
50
180
51
270
0
LINE
5
195
100
AcDbEntity
8
0
100
AcDbLine
10
236.36250000000004
20
-100.0125
30
0
11
236.36249999999995
21
-103.01250000000003
31
0
0
LINE
5
196
100
AcDbEntity
8
0
100
AcDbLine
10
8.3017513300758807
20
-102.50084179107435
30
0
11
8.3017513300758807
21
-105.00000095128961
31
0
0
LINE
5
197
100
AcDbEntity
8
0
100
AcDbLine
10
10.701750741276857
20
-102.50084179107438
30
0
11
10.701750741276857
21
-105.0046744841901
31
0
0
LINE
5
198
100
AcDbEntity
8
0
100
AcDbLine
10
232.16250000000002
20
-102.5125
30
0
11
232.16250000000002
21
-105.00247487421326
31
0
0
LINE
5
199
100
AcDbEntity
8
0
100
AcDbLine
10
234.56250000000006
20
-102.5125
30
0
11
234.56250000000009
21
-105.00247487421322
31
0
0
LINE
5
200
100
AcDbEntity
8
0
100
AcDbLine
10
294.07499999999999
20
-102.5125
30
0
11
294.07500000000005
21
-105.00247487421326
31
0
0
LINE
5
201
100
AcDbEntity
8
0
100
AcDbLine
10
296.47500000000002
20
-102.5125
30
0
11
296.47500000000002
21
-105.00247487421322
31
0
0
LINE
5
202
100
AcDbEntity
8
0
100
AcDbLine
10
294.07499999999999
20
2.5000000372529034
30
0
11
294.07499999999999
21
4.989974874213237
31
0
0
LINE
5
203
100
AcDbEntity
8
0
100
AcDbLine
10
296.47500000000002
20
2.5000000372529034
30
0
11
296.47500000000002
21
4.9899748742132601
31
0
0
LINE
5
204
100
AcDbEntity
8
0
100
AcDbLine
10
232.16250000000002
20
2.5000000372529034
30
0
11
232.16250000000002
21
4.9899748742132441
31
0
0
LINE
5
205
100
AcDbEntity
8
0
100
AcDbLine
10
234.56250000000006
20
2.5000000372529034
30
0
11
234.56250000000006
21
4.9899748742132504
31
0
0
LINE
5
206
100
AcDbEntity
8
0
100
AcDbLine
10
10.725000000000001
20
2.5000000372529034
30
0
11
10.725000000000001
21
4.9899749487190448
31
0
0
LINE
5
207
100
AcDbEntity
8
0
100
AcDbLine
10
8.3250000000000011
20
2.5000000372529034
30
0
11
8.3250000000000011
21
4.9899749487190448
31
0
0
ARC
5
208
100
AcDbEntity
8
0
100
AcDbCircle
10
9.5250000000000021
20
2.5000000372529034
30
0
40
1.2
210
0
220
0
230
1
100
AcDbArc
50
-180
51
0
0
ARC
5
209
100
AcDbEntity
8
0
100
AcDbCircle
10
233.36250000000004
20
2.5000000372529034
30
0
40
1.2000000000000099
210
0
220
0
230
1
100
AcDbArc
50
-180
51
0
0
ARC
5
210
100
AcDbEntity
8
0
100
AcDbCircle
10
295.27499999999998
20
2.5000000372529034
30
0
40
1.2000000000000099
210
0
220
0
230
1
100
AcDbArc
50
-180
51
0
0
ARC
5
211
100
AcDbEntity
8
0
100
AcDbCircle
10
295.27499999999998
20
-102.5125
30
0
40
1.2000000000000099
210
0
220
0
230
1
100
AcDbArc
50
0
51
180
0
ARC
5
212
100
AcDbEntity
8
0
100
AcDbCircle
10
233.36250000000004
20
-102.5125
30
0
40
1.2000000000000099
210
0
220
0
230
1
100
AcDbArc
50
0
51
180
0
ARC
5
213
100
AcDbEntity
8
0
100
AcDbCircle
10
9.5017510356763673
20
-102.50084179107438
30
0
40
1.1999997056004885
210
0
220
0
230
1
100
AcDbArc
50
0
51
180
0
ENDSEC
0
SECTION
2
OBJECTS
0
DICTIONARY
5
C
100
AcDbDictionary
3
ACAD_GROUP
350
D
3
ACAD_MLINESTYLE
350
17
0
DICTIONARY
5
D
100
AcDbDictionary
0
DICTIONARY
5
1A
330
C
100
AcDbDictionary
0
DICTIONARY
5
17
100
AcDbDictionary
0
ENDSEC
0
EOF
