0
SECTION
2
HEADER
9
$INSUNITS
70
4
9
$ACADVER
1
AC1014
9
$HANDSEED
5
FFFF
0
ENDSEC
0
SECTION
2
TABLES
0
TABLE
2
VPORT
5
8
100
AcDbSymbolTable
0
ENDTAB
0
TABLE
2
LTYPE
5
5
100
AcDbSymbolTable
0
LTYPE
5
14
100
AcDbSymbolTableRecord
100
AcDbLinetypeTableRecord
2
BYBLOCK
70
0
0
LTYPE
5
15
100
AcDbSymbolTableRecord
100
AcDbLinetypeTableRecord
2
BYLAYER
70
0
0
ENDTAB
0
TABLE
2
LAYER
5
2
100
AcDbSymbolTable
70
2
0
LAYER
5
50
100
AcDbSymbolTableRecord
100
AcDbLayerTableRecord
2
0
70
0
6
CONTINUOUS
0
ENDTAB
0
TABLE
2
STYLE
5
3
100
AcDbSymbolTable
70
1
0
STYLE
5
11
100
AcDbSymbolTableRecord
100
AcDbTextStyleTableRecord
2
STANDARD
70
0
0
ENDTAB
0
TABLE
2
VIEW
5
6
100
AcDbSymbolTable
70
0
0
ENDTAB
0
TABLE
2
UCS
5
7
100
AcDbSymbolTable
70
0
0
ENDTAB
0
TABLE
2
APPID
5
9
100
AcDbSymbolTable
70
2
0
APPID
5
12
100
AcDbSymbolTableRecord
100
AcDbRegAppTableRecord
2
ACAD
70
0
0
ENDTAB
0
TABLE
2
DIMSTYLE
5
A
100
AcDbSymbolTable
70
1
0
ENDTAB
0
TABLE
2
BLOCK_RECORD
5
1
100
AcDbSymbolTable
70
1
0
BLOCK_RECORD
5
1F
100
AcDbSymbolTableRecord
100
AcDbBlockTableRecord
2
*MODEL_SPACE
0
BLOCK_RECORD
5
1B
100
AcDbSymbolTableRecord
100
AcDbBlockTableRecord
2
*PAPER_SPACE
0
ENDTAB
0
ENDSEC
0
SECTION
2
BLOCKS
0
BLOCK
5
20
100
AcDbEntity
100
AcDbBlockBegin
2
*MODEL_SPACE
0
ENDBLK
5
21
100
AcDbEntity
100
AcDbBlockEnd
0
BLOCK
5
1C
100
AcDbEntity
100
AcDbBlockBegin
2
*PAPER_SPACE
0
ENDBLK
5
1D
100
AcDbEntity
100
AcDbBlockEnd
0
ENDSEC
0
SECTION
2
ENTITIES
0
LWPOLYLINE
5
100
100
AcDbEntity
8
0
100
AcDbPolyline
90
8
70
1
43
0.0
10
3.0249999999999999
20
-2.5249999999999999
10
16.024999999999999
20
-2.5250000000000017
42
-0.41421356237309503
10
16.524999999999999
20
-3.0249999999999999
10
16.524999999999999
20
-16.024999999999999
42
-0.41421356237309503
10
16.024999999999999
20
-16.524999999999999
10
3.0249999999999999
20
-16.525000000000002
42
-0.41421356237309503
10
2.5249999999999999
20
-16.024999999999999
10
2.5249999999999999
20
-3.0249999999999999
42
-0.41421356237309503
0
LWPOLYLINE
5
101
100
AcDbEntity
8
0
100
AcDbPolyline
90
8
70
1
43
0.0
10
26.837499999999999
20
-2.5249999999999999
10
39.837499999999999
20
-2.5249999999999972
42
-0.41421356237309503
10
40.337500000000006
20
-3.0249999999999999
10
40.337499999999991
20
-16.024999999999999
42
-0.41421356237309503
10
39.837499999999999
20
-16.524999999999999
10
26.837499999999999
20
-16.524999999999999
42
-0.41421356237309503
10
26.337499999999999
20
-16.024999999999999
10
26.337499999999999
20
-3.0249999999999999
42
-0.41421356237309503
0
LWPOLYLINE
5
102
100
AcDbEntity
8
0
100
AcDbPolyline
90
8
70
1
43
0.0
10
45.887500000000003
20
-2.5249999999999999
10
58.88750000000001
20
-2.5250000000000017
42
-0.41421356237309503
10
59.387500000000003
20
-3.0249999999999999
10
59.387500000000003
20
-16.024999999999999
42
-0.41421356237309503
10
58.88750000000001
20
-16.524999999999999
10
45.887500000000003
20
-16.524999999999999
42
-0.41421356237309503
10
45.387500000000003
20
-16.024999999999999
10
45.387500000000003
20
-3.0249999999999999
42
-0.41421356237309503
0
LWPOLYLINE
5
103
100
AcDbEntity
8
0
100
AcDbPolyline
90
8
70
1
43
0.0
10
64.9375
20
-2.5249999999999999
10
77.9375
20
-2.5250000000000017
42
-0.41421356237309503
10
78.4375
20
-3.0249999999999999
10
78.4375
20
-16.024999999999999
42
-0.41421356237309503
10
77.9375
20
-16.524999999999999
10
64.9375
20
-16.524999999999999
42
-0.41421356237309503
10
64.4375
20
-16.024999999999999
10
64.4375
20
-3.0249999999999999
42
-0.41421356237309503
0
LWPOLYLINE
5
104
100
AcDbEntity
8
0
100
AcDbPolyline
90
8
70
1
43
0.0
10
83.987499999999997
20
-2.5249999999999999
10
96.987500000000011
20
-2.5249999999999928
42
-0.41421356237309503
10
97.487500000000011
20
-3.0249999999999999
10
97.487500000000011
20
-16.024999999999999
42
-0.41421356237309503
10
96.987500000000011
20
-16.524999999999999
10
83.987499999999997
20
-16.524999999999991
42
-0.41421356237309503
10
83.487500000000011
20
-16.024999999999999
10
83.487499999999983
20
-3.0249999999999999
42
-0.41421356237309503
0
LWPOLYLINE
5
105
100
AcDbEntity
8
0
100
AcDbPolyline
90
8
70
1
43
0.0
10
107.80000000000001
20
-2.5249999999999999
10
120.8
20
-2.5249999999999928
42
-0.41421356237309503
10
121.30000000000001
20
-3.0249999999999999
10
121.29999999999998
20
-16.024999999999999
42
-0.41421356237309503
10
120.8
20
-16.524999999999999
10
107.80000000000001
20
-16.525000000000006
42
-0.41421356237309503
10
107.30000000000001
20
-16.024999999999999
10
107.30000000000001
20
-3.0249999999999999
42
-0.41421356237309503
0
LWPOLYLINE
5
106
100
AcDbEntity
8
0
100
AcDbPolyline
90
8
70
1
43
0.0
10
126.85000000000001
20
-2.5249999999999999
10
139.84999999999999
20
-2.5249999999999928
42
-0.41421356237309503
10
140.34999999999999
20
-3.0249999999999999
10
140.34999999999999
20
-16.024999999999999
42
-0.41421356237309503
10
139.84999999999999
20
-16.524999999999999
10
126.85000000000001
20
-16.525000000000006
42
-0.41421356237309503
10
126.34999999999999
20
-16.024999999999999
10
126.34999999999999
20
-3.0249999999999999
42
-0.41421356237309503
0
LWPOLYLINE
5
107
100
AcDbEntity
8
0
100
AcDbPolyline
90
8
70
1
43
0.0
10
145.90000000000001
20
-2.5249999999999999
10
158.90000000000001
20
-2.5249999999999928
42
-0.41421356237309503
10
159.40000000000001
20
-3.0249999999999999
10
159.40000000000001
20
-16.024999999999999
42
-0.41421356237309503
10
158.90000000000001
20
-16.524999999999999
10
145.90000000000001
20
-16.525000000000006
42
-0.41421356237309503
10
145.40000000000001
20
-16.024999999999999
10
145.40000000000001
20
-3.0249999999999999
42
-0.41421356237309503
0
LWPOLYLINE
5
108
100
AcDbEntity
8
0
100
AcDbPolyline
90
8
70
1
43
0.0
10
164.95000000000002
20
-2.5249999999999999
10
177.94999999999999
20
-2.5249999999999928
42
-0.41421356237309503
10
178.44999999999999
20
-3.0249999999999999
10
178.44999999999999
20
-16.024999999999999
42
-0.41421356237309503
10
177.94999999999999
20
-16.524999999999999
10
164.95000000000002
20
-16.525000000000006
42
-0.41421356237309503
10
164.44999999999999
20
-16.024999999999999
10
164.44999999999999
20
-3.0249999999999999
42
-0.41421356237309503
0
LWPOLYLINE
5
109
100
AcDbEntity
8
0
100
AcDbPolyline
90
8
70
1
43
0.0
10
188.76249999999999
20
-2.5249999999999999
10
201.76249999999999
20
-2.5249999999999928
42
-0.41421356237309503
10
202.26249999999999
20
-3.0249999999999999
10
202.26249999999999
20
-16.024999999999999
42
-0.41421356237309503
10
201.76249999999999
20
-16.524999999999999
10
188.76249999999999
20
-16.525000000000006
42
-0.41421356237309503
10
188.26249999999999
20
-16.024999999999999
10
188.26249999999999
20
-3.0249999999999999
42
-0.41421356237309503
0
LWPOLYLINE
5
110
100
AcDbEntity
8
0
100
AcDbPolyline
90
8
70
1
43
0.0
10
207.8125
20
-2.5249999999999999
10
220.8125
20
-2.5249999999999928
42
-0.41421356237309503
10
221.3125
20
-3.0249999999999999
10
221.3125
20
-16.024999999999999
42
-0.41421356237309503
10
220.8125
20
-16.524999999999999
10
207.8125
20
-16.52499999999997
42
-0.41421356237309503
10
207.31250000000003
20
-16.024999999999999
10
207.3125
20
-3.0249999999999999
42
-0.41421356237309503
0
LWPOLYLINE
5
111
100
AcDbEntity
8
0
100
AcDbPolyline
90
8
70
1
43
0.0
10
226.86250000000001
20
-2.5249999999999999
10
239.86250000000001
20
-2.5249999999999928
42
-0.41421356237309503
10
240.36250000000001
20
-3.0249999999999999
10
240.36250000000001
20
-16.024999999999999
42
-0.41421356237309503
10
239.86250000000001
20
-16.524999999999999
10
226.86250000000001
20
-16.52499999999997
42
-0.41421356237309503
10
226.36250000000004
20
-16.024999999999999
10
226.36250000000001
20
-3.0249999999999999
42
-0.41421356237309503
0
LWPOLYLINE
5
112
100
AcDbEntity
8
0
100
AcDbPolyline
90
8
70
1
43
0.0
10
250.67500000000001
20
-2.5249999999999999
10
263.67500000000001
20
-2.5249999999999928
42
-0.41421356237309503
10
264.17500000000007
20
-3.0249999999999999
10
264.17500000000007
20
-16.024999999999999
42
-0.41421356237309503
10
263.67500000000001
20
-16.524999999999999
10
250.67500000000001
20
-16.525000000000006
42
-0.41421356237309503
10
250.17500000000001
20
-16.024999999999999
10
250.17500000000001
20
-3.0249999999999999
42
-0.41421356237309503
0
LWPOLYLINE
5
113
100
AcDbEntity
8
0
100
AcDbPolyline
90
8
70
1
43
0.0
10
269.72500000000002
20
-2.5249999999999999
10
282.72500000000002
20
-2.5249999999999928
42
-0.41421356237309503
10
283.22500000000002
20
-3.0249999999999999
10
283.22500000000002
20
-16.024999999999999
42
-0.41421356237309503
10
282.72500000000002
20
-16.524999999999999
10
269.72500000000002
20
-16.525000000000006
42
-0.41421356237309503
10
269.22500000000002
20
-16.024999999999999
10
269.22500000000002
20
-3.0249999999999999
42
-0.41421356237309503
0
LWPOLYLINE
5
114
100
AcDbEntity
8
0
100
AcDbPolyline
90
8
70
1
43
0.0
10
288.77499999999998
20
-2.5249999999999999
10
301.77499999999998
20
-2.5249999999999928
42
-0.41421356237309503
10
302.27499999999998
20
-3.0249999999999999
10
302.27499999999998
20
-16.024999999999999
42
-0.41421356237309503
10
301.77499999999998
20
-16.524999999999999
10
288.77499999999998
20
-16.52499999999997
42
-0.41421356237309503
10
288.27499999999998
20
-16.024999999999999
10
288.27499999999998
20
-3.0249999999999999
42
-0.41421356237309503
0
LWPOLYLINE
5
115
100
AcDbEntity
8
0
100
AcDbPolyline
90
8
70
1
43
0.0
10
3.0249999999999999
20
-26.337499999999999
10
16.024999999999999
20
-26.337499999999999
42
-0.41421356237309503
10
16.524999999999999
20
-26.837499999999999
10
16.525000000000002
20
-39.837499999999999
42
-0.41421356237309503
10
16.024999999999999
20
-40.337500000000006
10
3.0249999999999999
20
-40.337500000000006
42
-0.41421356237309503
10
2.5249999999999999
20
-39.837499999999999
10
2.5250000000000017
20
-26.837499999999999
42
-0.41421356237309503
0
LWPOLYLINE
5
116
100
AcDbEntity
8
0
100
AcDbPolyline
90
8
70
1
43
0.0
10
22.074999999999999
20
-26.337499999999999
10
35.075000000000003
20
-26.337499999999995
42
-0.41421356237309503
10
35.575000000000003
20
-26.837499999999999
10
35.575000000000003
20
-39.837499999999999
42
-0.41421356237309503
10
35.075000000000003
20
-40.337500000000006
10
22.074999999999999
20
-40.337499999999991
42
-0.41421356237309503
10
21.575000000000003
20
-39.837499999999999
10
21.575000000000003
20
-26.837499999999999
42
-0.41421356237309503
0
LWPOLYLINE
5
117
100
AcDbEntity
8
0
100
AcDbPolyline
90
8
70
1
43
0.0
10
41.125
20
-26.337499999999999
10
54.125000000000007
20
-26.337499999999999
42
-0.41421356237309503
10
54.625
20
-26.837499999999999
10
54.625
20
-39.837499999999999
42
-0.41421356237309503
10
54.125000000000007
20
-40.337500000000006
10
41.125
20
-40.337499999999991
42
-0.41421356237309503
10
40.625
20
-39.837499999999999
10
40.625
20
-26.837499999999999
42
-0.41421356237309503
0
LWPOLYLINE
5
118
100
AcDbEntity
8
0
100
AcDbPolyline
90
8
70
1
43
0.0
10
60.174999999999997
20
-26.337499999999999
10
73.174999999999997
20
-26.337499999999999
42
-0.41421356237309503
10
73.674999999999997
20
-26.837499999999999
10
73.674999999999997
20
-39.837499999999999
42
-0.41421356237309503
10
73.174999999999997
20
-40.337500000000006
10
60.174999999999997
20
-40.337499999999991
42
-0.41421356237309503
10
59.675000000000004
20
-39.837499999999999
10
59.675000000000004
20
-26.837499999999999
42
-0.41421356237309503
0
LWPOLYLINE
5
119
100
AcDbEntity
8
0
100
AcDbPolyline
90
8
70
1
43
0.0
10
79.224999999999994
20
-26.337499999999999
10
92.224999999999994
20
-26.337500000000009
42
-0.41421356237309503
10
92.724999999999994
20
-26.837499999999999
10
92.725000000000009
20
-39.837499999999999
42
-0.41421356237309503
10
92.224999999999994
20
-40.337500000000006
10
79.224999999999994
20
-40.337499999999991
42
-0.41421356237309503
10
78.724999999999994
20
-39.837499999999999
10
78.724999999999994
20
-26.837499999999999
42
-0.41421356237309503
0
LWPOLYLINE
5
120
100
AcDbEntity
8
0
100
AcDbPolyline
90
8
70
1
43
0.0
10
98.275000000000006
20
-26.337499999999999
10
111.27500000000001
20
-26.337499999999991
42
-0.41421356237309503
10
111.77500000000002
20
-26.837499999999999
10
111.77500000000002
20
-39.837499999999999
42
-0.41421356237309503
10
111.27500000000001
20
-40.337500000000006
10
98.275000000000006
20
-40.337499999999991
42
-0.41421356237309503
10
97.77500000000002
20
-39.837499999999999
10
97.775000000000006
20
-26.837499999999999
42
-0.41421356237309503
0
LWPOLYLINE
5
121
100
AcDbEntity
8
0
100
AcDbPolyline
90
8
70
1
43
0.0
10
117.32500000000002
20
-26.337499999999999
10
130.32499999999999
20
-26.337499999999991
42
-0.41421356237309503
10
130.82499999999999
20
-26.837499999999999
10
130.82499999999999
20
-39.837499999999999
42
-0.41421356237309503
10
130.32499999999999
20
-40.337500000000006
10
117.32500000000002
20
-40.337500000000013
42
-0.41421356237309503
10
116.82500000000002
20
-39.837499999999999
10
116.82500000000002
20
-26.837499999999999
42
-0.41421356237309503
0
LWPOLYLINE
5
122
100
AcDbEntity
8
0
100
AcDbPolyline
90
8
70
1
43
0.0
10
136.375
20
-26.337499999999999
10
149.375
20
-26.337499999999991
42
-0.41421356237309503
10
149.875
20
-26.837499999999999
10
149.875
20
-39.837499999999999
42
-0.41421356237309503
10
149.375
20
-40.337500000000006
10
136.375
20
-40.337500000000013
42
-0.41421356237309503
10
135.875
20
-39.837499999999999
10
135.87500000000003
20
-26.837499999999999
42
-0.41421356237309503
0
LWPOLYLINE
5
123
100
AcDbEntity
8
0
100
AcDbPolyline
90
8
70
1
43
0.0
10
155.42500000000001
20
-26.337499999999999
10
168.42500000000001
20
-26.337499999999991
42
-0.41421356237309503
10
168.92500000000001
20
-26.837499999999999
10
168.92500000000001
20
-39.837499999999999
42
-0.41421356237309503
10
168.42500000000001
20
-40.337500000000006
10
155.42500000000001
20
-40.337500000000013
42
-0.41421356237309503
10
154.92500000000001
20
-39.837499999999999
10
154.92500000000004
20
-26.837499999999999
42
-0.41421356237309503
0
LWPOLYLINE
5
124
100
AcDbEntity
8
0
100
AcDbPolyline
90
8
70
1
43
0.0
10
174.47500000000002
20
-26.337499999999999
10
187.47499999999999
20
-26.337499999999991
42
-0.41421356237309503
10
187.97499999999999
20
-26.837499999999999
10
187.97499999999999
20
-39.837499999999999
42
-0.41421356237309503
10
187.47499999999999
20
-40.337500000000006
10
174.47500000000002
20
-40.337500000000013
42
-0.41421356237309503
10
173.97500000000002
20
-39.837499999999999
10
173.97500000000002
20
-26.837499999999999
42
-0.41421356237309503
0
LWPOLYLINE
5
125
100
AcDbEntity
8
0
100
AcDbPolyline
90
8
70
1
43
0.0
10
193.52500000000003
20
-26.337499999999999
10
206.52500000000003
20
-26.337500000000027
42
-0.41421356237309503
10
207.02500000000001
20
-26.837499999999999
10
207.02500000000003
20
-39.837499999999999
42
-0.41421356237309503
10
206.52500000000003
20
-40.337500000000006
10
193.52500000000003
20
-40.337500000000013
42
-0.41421356237309503
10
193.02500000000003
20
-39.837499999999999
10
193.02500000000003
20
-26.837499999999999
42
-0.41421356237309503
0
LWPOLYLINE
5
126
100
AcDbEntity
8
0
100
AcDbPolyline
90
8
70
1
43
0.0
10
219.71875
20
-26.337499999999999
10
232.71875
20
-26.337499999999991
42
-0.41421356237309503
10
233.21875000000003
20
-26.837499999999999
10
233.21875000000003
20
-39.837499999999999
42
-0.41421356237309503
10
232.71875
20
-40.337500000000006
10
219.71875
20
-40.337500000000013
42
-0.41421356237309503
10
219.21875
20
-39.837499999999999
10
219.21875
20
-26.837499999999999
42
-0.41421356237309503
0
LWPOLYLINE
5
127
100
AcDbEntity
8
0
100
AcDbPolyline
90
8
70
1
43
0.0
10
250.67500000000001
20
-26.337499999999999
10
263.67500000000001
20
-26.337499999999991
42
-0.41421356237309503
10
264.17500000000007
20
-26.837499999999999
10
264.17500000000007
20
-39.837499999999999
42
-0.41421356237309503
10
263.67500000000001
20
-40.337500000000006
10
250.67500000000001
20
-40.337500000000013
42
-0.41421356237309503
10
250.17500000000001
20
-39.837499999999999
10
250.17500000000001
20
-26.837499999999999
42
-0.41421356237309503
0
LWPOLYLINE
5
128
100
AcDbEntity
8
0
100
AcDbPolyline
90
8
70
1
43
0.0
10
269.72500000000002
20
-26.337499999999999
10
282.72500000000002
20
-26.337499999999991
42
-0.41421356237309503
10
283.22500000000002
20
-26.837499999999999
10
283.22500000000002
20
-39.837499999999999
42
-0.41421356237309503
10
282.72500000000002
20
-40.337500000000006
10
269.72500000000002
20
-40.337500000000013
42
-0.41421356237309503
10
269.22500000000002
20
-39.837499999999999
10
269.22500000000002
20
-26.837499999999999
42
-0.41421356237309503
0
LWPOLYLINE
5
129
100
AcDbEntity
8
0
100
AcDbPolyline
90
8
70
1
43
0.0
10
288.77499999999998
20
-26.337499999999999
10
301.77499999999998
20
-26.337499999999991
42
-0.41421356237309503
10
302.27499999999998
20
-26.837499999999999
10
302.27499999999998
20
-39.837499999999999
42
-0.41421356237309503
10
301.77499999999998
20
-40.337500000000006
10
288.77499999999998
20
-40.337499999999977
42
-0.41421356237309503
10
288.27499999999998
20
-39.837499999999999
10
288.27499999999998
20
-26.837499999999999
42
-0.41421356237309503
0
LWPOLYLINE
5
130
100
AcDbEntity
8
0
100
AcDbPolyline
90
8
70
1
43
0.0
10
5.40625
20
-45.387500000000003
10
18.40625
20
-45.387500000000003
42
-0.41421356237309503
10
18.90625
20
-45.887500000000003
10
18.90625
20
-58.88750000000001
42
-0.41421356237309503
10
18.40625
20
-59.387500000000003
10
5.40625
20
-59.387500000000003
42
-0.41421356237309503
10
4.90625
20
-58.88750000000001
10
4.9062500000000018
20
-45.887500000000003
42
-0.41421356237309503
0
LWPOLYLINE
5
131
100
AcDbEntity
8
0
100
AcDbPolyline
90
8
70
1
43
0.0
10
26.837499999999999
20
-45.387500000000003
10
39.837499999999999
20
-45.387500000000003
42
-0.41421356237309503
10
40.337500000000006
20
-45.887500000000003
10
40.337499999999991
20
-58.88750000000001
42
-0.41421356237309503
10
39.837499999999999
20
-59.387500000000003
10
26.837499999999999
20
-59.387500000000003
42
-0.41421356237309503
10
26.337499999999999
20
-58.88750000000001
10
26.337499999999999
20
-45.887500000000003
42
-0.41421356237309503
0
LWPOLYLINE
5
132
100
AcDbEntity
8
0
100
AcDbPolyline
90
8
70
1
43
0.0
10
45.887500000000003
20
-45.387500000000003
10
58.88750000000001
20
-45.387500000000003
42
-0.41421356237309503
10
59.387500000000003
20
-45.887500000000003
10
59.387500000000003
20
-58.88750000000001
42
-0.41421356237309503
10
58.88750000000001
20
-59.387500000000003
10
45.887500000000003
20
-59.387500000000003
42
-0.41421356237309503
10
45.387500000000003
20
-58.88750000000001
10
45.387500000000003
20
-45.887500000000003
42
-0.41421356237309503
0
LWPOLYLINE
5
133
100
AcDbEntity
8
0
100
AcDbPolyline
90
8
70
1
43
0.0
10
64.9375
20
-45.387500000000003
10
77.9375
20
-45.387500000000003
42
-0.41421356237309503
10
78.4375
20
-45.887500000000003
10
78.4375
20
-58.88750000000001
42
-0.41421356237309503
10
77.9375
20
-59.387500000000003
10
64.9375
20
-59.387500000000003
42
-0.41421356237309503
10
64.4375
20
-58.88750000000001
10
64.4375
20
-45.887500000000003
42
-0.41421356237309503
0
LWPOLYLINE
5
134
100
AcDbEntity
8
0
100
AcDbPolyline
90
8
70
1
43
0.0
10
83.987499999999997
20
-45.387500000000003
10
96.987500000000011
20
-45.387499999999996
42
-0.41421356237309503
10
97.487500000000011
20
-45.887500000000003
10
97.487500000000011
20
-58.88750000000001
42
-0.41421356237309503
10
96.987500000000011
20
-59.387500000000003
10
83.987499999999997
20
-59.387499999999996
42
-0.41421356237309503
10
83.487500000000011
20
-58.88750000000001
10
83.487499999999983
20
-45.887500000000003
42
-0.41421356237309503
0
LWPOLYLINE
5
135
100
AcDbEntity
8
0
100
AcDbPolyline
90
8
70
1
43
0.0
10
103.03750000000001
20
-45.387500000000003
10
116.03749999999999
20
-45.387499999999996
42
-0.41421356237309503
10
116.53750000000001
20
-45.887500000000003
10
116.53749999999999
20
-58.88750000000001
42
-0.41421356237309503
10
116.03749999999999
20
-59.387500000000003
10
103.03750000000001
20
-59.387500000000017
42
-0.41421356237309503
10
102.53749999999999
20
-58.88750000000001
10
102.53749999999999
20
-45.887500000000003
42
-0.41421356237309503
0
LWPOLYLINE
5
136
100
AcDbEntity
8
0
100
AcDbPolyline
90
8
70
1
43
0.0
10
122.08750000000002
20
-45.387500000000003
10
135.08750000000001
20
-45.387499999999996
42
-0.41421356237309503
10
135.58750000000001
20
-45.887500000000003
10
135.58750000000001
20
-58.88750000000001
42
-0.41421356237309503
10
135.08750000000001
20
-59.387500000000003
10
122.08750000000002
20
-59.387500000000017
42
-0.41421356237309503
10
121.58750000000001
20
-58.88750000000001
10
121.58750000000001
20
-45.887500000000003
42
-0.41421356237309503
0
LWPOLYLINE
5
137
100
AcDbEntity
8
0
100
AcDbPolyline
90
8
70
1
43
0.0
10
141.13749999999999
20
-45.387500000000003
10
154.13749999999999
20
-45.38750000000001
42
-0.41421356237309503
10
154.63749999999999
20
-45.887500000000003
10
154.63750000000002
20
-58.88750000000001
42
-0.41421356237309503
10
154.13749999999999
20
-59.387500000000003
10
141.13749999999999
20
-59.387500000000017
42
-0.41421356237309503
10
140.63749999999999
20
-58.88750000000001
10
140.63749999999999
20
-45.887500000000003
42
-0.41421356237309503
0
LWPOLYLINE
5
138
100
AcDbEntity
8
0
100
AcDbPolyline
90
8
70
1
43
0.0
10
160.1875
20
-45.387500000000003
10
173.1875
20
-45.387499999999996
42
-0.41421356237309503
10
173.68750000000003
20
-45.887500000000003
10
173.68750000000003
20
-58.88750000000001
42
-0.41421356237309503
10
173.1875
20
-59.387500000000003
10
160.1875
20
-59.387500000000017
42
-0.41421356237309503
10
159.6875
20
-58.88750000000001
10
159.6875
20
-45.887500000000003
42
-0.41421356237309503
0
LWPOLYLINE
5
139
100
AcDbEntity
8
0
100
AcDbPolyline
90
8
70
1
43
0.0
10
179.23750000000001
20
-45.387500000000003
10
192.23750000000001
20
-45.387499999999996
42
-0.41421356237309503
10
192.73750000000004
20
-45.887500000000003
10
192.73750000000004
20
-58.88750000000001
42
-0.41421356237309503
10
192.23750000000001
20
-59.387500000000003
10
179.23750000000001
20
-59.387500000000017
42
-0.41421356237309503
10
178.73750000000001
20
-58.88750000000001
10
178.73750000000001
20
-45.887500000000003
42
-0.41421356237309503
0
LWPOLYLINE
5
140
100
AcDbEntity
8
0
100
AcDbPolyline
90
8
70
1
43
0.0
10
198.28749999999999
20
-45.387500000000003
10
211.28749999999999
20
-45.387499999999996
42
-0.41421356237309503
10
211.78750000000002
20
-45.887500000000003
10
211.78750000000002
20
-58.88750000000001
42
-0.41421356237309503
10
211.28749999999999
20
-59.387500000000003
10
198.28749999999999
20
-59.387499999999982
42
-0.41421356237309503
10
197.78750000000002
20
-58.88750000000001
10
197.78749999999999
20
-45.887500000000003
42
-0.41421356237309503
0
LWPOLYLINE
5
141
100
AcDbEntity
8
0
100
AcDbPolyline
90
8
70
1
43
0.0
10
222.10000000000002
20
-45.387500000000003
10
235.10000000000002
20
-45.387499999999996
42
-0.41421356237309503
10
235.60000000000002
20
-45.887500000000003
10
235.60000000000002
20
-58.88750000000001
42
-0.41421356237309503
10
235.10000000000002
20
-59.387500000000003
10
222.10000000000002
20
-59.387500000000017
42
-0.41421356237309503
10
221.59999999999999
20
-58.88750000000001
10
221.59999999999999
20
-45.887500000000003
42
-0.41421356237309503
0
LWPOLYLINE
5
142
100
AcDbEntity
8
0
100
AcDbPolyline
90
8
70
1
43
0.0
10
10.168749999999999
20
-64.4375
10
23.168749999999999
20
-64.4375
42
-0.41421356237309503
10
23.668749999999999
20
-64.9375
10
23.668749999999999
20
-77.9375
42
-0.41421356237309503
10
23.168749999999999
20
-78.4375
10
10.168749999999999
20
-78.4375
42
-0.41421356237309503
10
9.6687499999999993
20
-77.9375
10
9.6687500000000011
20
-64.9375
42
-0.41421356237309503
0
LWPOLYLINE
5
143
100
AcDbEntity
8
0
100
AcDbPolyline
90
8
70
1
43
0.0
10
36.362499999999997
20
-64.4375
10
49.362500000000004
20
-64.4375
42
-0.41421356237309503
10
49.862499999999997
20
-64.9375
10
49.862499999999997
20
-77.9375
42
-0.41421356237309503
10
49.362500000000004
20
-78.4375
10
36.362499999999997
20
-78.4375
42
-0.41421356237309503
10
35.862499999999997
20
-77.9375
10
35.862500000000004
20
-64.9375
42
-0.41421356237309503
0
LWPOLYLINE
5
144
100
AcDbEntity
8
0
100
AcDbPolyline
90
8
70
1
43
0.0
10
55.412500000000009
20
-64.4375
10
68.412499999999994
20
-64.4375
42
-0.41421356237309503
10
68.912499999999994
20
-64.9375
10
68.912499999999994
20
-77.9375
42
-0.41421356237309503
10
68.412499999999994
20
-78.4375
10
55.412500000000009
20
-78.4375
42
-0.41421356237309503
10
54.912500000000009
20
-77.9375
10
54.912500000000009
20
-64.9375
42
-0.41421356237309503
0
LWPOLYLINE
5
145
100
AcDbEntity
8
0
100
AcDbPolyline
90
8
70
1
43
0.0
10
74.462500000000006
20
-64.4375
10
87.46250000000002
20
-64.437500000000014
42
-0.41421356237309503
10
87.962500000000006
20
-64.9375
10
87.962500000000006
20
-77.9375
42
-0.41421356237309503
10
87.46250000000002
20
-78.4375
10
74.462500000000006
20
-78.4375
42
-0.41421356237309503
10
73.962500000000006
20
-77.9375
10
73.962500000000006
20
-64.9375
42
-0.41421356237309503
0
LWPOLYLINE
5
146
100
AcDbEntity
8
0
100
AcDbPolyline
90
8
70
1
43
0.0
10
93.512500000000003
20
-64.4375
10
106.51250000000002
20
-64.4375
42
-0.41421356237309503
10
107.01250000000002
20
-64.9375
10
107.01250000000002
20
-77.9375
42
-0.41421356237309503
10
106.51250000000002
20
-78.4375
10
93.512500000000003
20
-78.437499999999986
42
-0.41421356237309503
10
93.012500000000017
20
-77.9375
10
93.012499999999989
20
-64.9375
42
-0.41421356237309503
0
LWPOLYLINE
5
147
100
AcDbEntity
8
0
100
AcDbPolyline
90
8
70
1
43
0.0
10
112.56250000000001
20
-64.4375
10
125.5625
20
-64.4375
42
-0.41421356237309503
10
126.06250000000001
20
-64.9375
10
126.0625
20
-77.9375
42
-0.41421356237309503
10
125.5625
20
-78.4375
10
112.56250000000001
20
-78.437500000000014
42
-0.41421356237309503
10
112.0625
20
-77.9375
10
112.0625
20
-64.9375
42
-0.41421356237309503
0
LWPOLYLINE
5
148
100
AcDbEntity
8
0
100
AcDbPolyline
90
8
70
1
43
0.0
10
131.61250000000001
20
-64.4375
10
144.61250000000001
20
-64.4375
42
-0.41421356237309503
10
145.11250000000001
20
-64.9375
10
145.11250000000001
20
-77.9375
42
-0.41421356237309503
10
144.61250000000001
20
-78.4375
10
131.61250000000001
20
-78.437500000000014
42
-0.41421356237309503
10
131.11250000000001
20
-77.9375
10
131.11250000000001
20
-64.9375
42
-0.41421356237309503
0
LWPOLYLINE
5
149
100
AcDbEntity
8
0
100
AcDbPolyline
90
8
70
1
43
0.0
10
150.66249999999999
20
-64.4375
10
163.66250000000002
20
-64.4375
42
-0.41421356237309503
10
164.16250000000002
20
-64.9375
10
164.16250000000002
20
-77.9375
42
-0.41421356237309503
10
163.66250000000002
20
-78.4375
10
150.66249999999999
20
-78.437500000000014
42
-0.41421356237309503
10
150.16249999999999
20
-77.9375
10
150.16249999999999
20
-64.9375
42
-0.41421356237309503
0
LWPOLYLINE
5
150
100
AcDbEntity
8
0
100
AcDbPolyline
90
8
70
1
43
0.0
10
169.71250000000001
20
-64.4375
10
182.71250000000003
20
-64.4375
42
-0.41421356237309503
10
183.21250000000003
20
-64.9375
10
183.21250000000003
20
-77.9375
42
-0.41421356237309503
10
182.71250000000003
20
-78.4375
10
169.71250000000001
20
-78.437500000000014
42
-0.41421356237309503
10
169.21250000000001
20
-77.9375
10
169.21250000000001
20
-64.9375
42
-0.41421356237309503
0
LWPOLYLINE
5
151
100
AcDbEntity
8
0
100
AcDbPolyline
90
8
70
1
43
0.0
10
188.76249999999999
20
-64.4375
10
201.76249999999999
20
-64.4375
42
-0.41421356237309503
10
202.26249999999999
20
-64.9375
10
202.26249999999999
20
-77.9375
42
-0.41421356237309503
10
201.76249999999999
20
-78.4375
10
188.76249999999999
20
-78.437500000000014
42
-0.41421356237309503
10
188.26249999999999
20
-77.9375
10
188.26249999999999
20
-64.9375
42
-0.41421356237309503
0
LWPOLYLINE
5
152
100
AcDbEntity
8
0
100
AcDbPolyline
90
8
70
1
43
0.0
10
207.8125
20
-64.4375
10
220.8125
20
-64.4375
42
-0.41421356237309503
10
221.3125
20
-64.9375
10
221.3125
20
-77.9375
42
-0.41421356237309503
10
220.8125
20
-78.4375
10
207.8125
20
-78.437499999999972
42
-0.41421356237309503
10
207.31250000000003
20
-77.9375
10
207.3125
20
-64.9375
42
-0.41421356237309503
0
LWPOLYLINE
5
153
100
AcDbEntity
8
0
100
AcDbPolyline
90
8
70
1
43
0.0
10
226.86250000000001
20
-64.4375
10
239.86250000000001
20
-64.4375
42
-0.41421356237309503
10
240.36250000000001
20
-64.9375
10
240.36250000000001
20
-77.9375
42
-0.41421356237309503
10
239.86250000000001
20
-78.4375
10
226.86250000000001
20
-78.437499999999972
42
-0.41421356237309503
10
226.36250000000004
20
-77.9375
10
226.36250000000001
20
-64.9375
42
-0.41421356237309503
0
LWPOLYLINE
5
154
100
AcDbEntity
8
0
100
AcDbPolyline
90
8
70
1
43
0.0
10
269.72500000000002
20
-64.4375
10
282.72500000000002
20
-64.4375
42
-0.41421356237309503
10
283.22500000000002
20
-64.9375
10
283.22500000000002
20
-77.9375
42
-0.41421356237309503
10
282.72500000000002
20
-78.4375
10
269.72500000000002
20
-78.437500000000014
42
-0.41421356237309503
10
269.22500000000002
20
-77.9375
10
269.22500000000002
20
-64.9375
42
-0.41421356237309503
0
LWPOLYLINE
5
155
100
AcDbEntity
8
0
100
AcDbPolyline
90
8
70
1
43
0.0
10
5.40625
20
-83.487500000000011
10
18.40625
20
-83.487499999999983
42
-0.41421356237309503
10
18.90625
20
-83.987499999999997
10
18.906250000000007
20
-96.987500000000011
42
-0.41421356237309503
10
18.40625
20
-97.487500000000011
10
5.40625
20
-97.487500000000011
42
-0.41421356237309503
10
4.90625
20
-96.987500000000011
10
4.9062500000000107
20
-83.987499999999997
42
-0.41421356237309503
0
LWPOLYLINE
5
156
100
AcDbEntity
8
0
100
AcDbPolyline
90
8
70
1
43
0.0
10
26.837499999999999
20
-83.487500000000011
10
39.837499999999999
20
-83.487499999999983
42
-0.41421356237309503
10
40.337500000000006
20
-83.987499999999997
10
40.337500000000013
20
-96.987500000000011
42
-0.41421356237309503
10
39.837499999999999
20
-97.487500000000011
10
26.837499999999999
20
-97.487500000000011
42
-0.41421356237309503
10
26.337499999999999
20
-96.987500000000011
10
26.337500000000009
20
-83.987499999999997
42
-0.41421356237309503
0
LWPOLYLINE
5
157
100
AcDbEntity
8
0
100
AcDbPolyline
90
8
70
1
43
0.0
10
45.887500000000003
20
-83.487500000000011
10
58.88750000000001
20
-83.487499999999983
42
-0.41421356237309503
10
59.387500000000003
20
-83.987499999999997
10
59.387500000000017
20
-96.987500000000011
42
-0.41421356237309503
10
58.88750000000001
20
-97.487500000000011
10
45.887500000000003
20
-97.487500000000011
42
-0.41421356237309503
10
45.387500000000003
20
-96.987500000000011
10
45.38750000000001
20
-83.987499999999997
42
-0.41421356237309503
0
LWPOLYLINE
5
158
100
AcDbEntity
8
0
100
AcDbPolyline
90
8
70
1
43
0.0
10
114.94374999999999
20
-83.487500000000011
10
127.94375000000001
20
-83.487500000000011
42
-0.41421356237309503
10
128.44374999999999
20
-83.987499999999997
10
128.44375000000002
20
-96.987500000000011
42
-0.41421356237309503
10
127.94375000000001
20
-97.487500000000011
10
114.94374999999999
20
-97.487499999999997
42
-0.41421356237309503
10
114.44375000000001
20
-96.987500000000011
10
114.44375000000001
20
-83.987499999999997
42
-0.41421356237309503
0
LWPOLYLINE
5
159
100
AcDbEntity
8
0
100
AcDbPolyline
90
8
70
1
43
0.0
10
68.443749999999994
20
-84.487500000000011
10
74.443749999999994
20
-84.487500000000011
42
-0.41421356237309503
10
74.943749999999994
20
-84.987499999999997
10
74.943750000000009
20
-98.987499999999997
42
-0.41421356237309503
10
74.443749999999994
20
-99.487500000000011
10
68.443749999999994
20
-99.487500000000011
42
-0.41421356237309503
10
67.943749999999994
20
-98.987499999999997
10
67.943750000000009
20
-84.987499999999997
42
-0.41421356237309503
0
LWPOLYLINE
5
160
100
AcDbEntity
8
0
100
AcDbPolyline
90
8
70
1
43
0.0
10
168.44374999999999
20
-84.487500000000011
10
174.44375000000002
20
-84.487499999999983
42
-0.41421356237309503
10
174.94375000000002
20
-84.987499999999997
10
174.94375000000002
20
-98.987499999999997
42
-0.41421356237309503
10
174.44375000000002
20
-99.487500000000011
10
168.44374999999999
20
-99.487500000000011
42
-0.41421356237309503
10
167.94374999999999
20
-98.987499999999997
10
167.94375000000002
20
-84.987499999999997
42
-0.41421356237309503
0
LWPOLYLINE
5
161
100
AcDbEntity
8
0
100
AcDbPolyline
90
8
70
1
43
0.0
10
184.00000000000003
20
-83.487500000000011
10
197.00000000000003
20
-83.487500000000026
42
-0.41421356237309503
10
197.5
20
-83.987499999999997
10
197.50000000000003
20
-96.987500000000011
42
-0.41421356237309503
10
197.00000000000003
20
-97.487500000000011
10
184.00000000000003
20
-97.487500000000011
42
-0.41421356237309503
10
183.5
20
-96.987500000000011
10
183.5
20
-83.987499999999997
42
-0.41421356237309503
0
LWPOLYLINE
5
162
100
AcDbEntity
8
0
100
AcDbPolyline
90
8
70
1
43
0.0
10
203.05000000000004
20
-83.487500000000011
10
216.05000000000004
20
-83.487500000000026
42
-0.41421356237309503
10
216.55000000000001
20
-83.987499999999997
10
216.55000000000004
20
-96.987500000000011
42
-0.41421356237309503
10
216.05000000000004
20
-97.487500000000011
10
203.05000000000004
20
-97.487500000000011
42
-0.41421356237309503
10
202.55000000000001
20
-96.987500000000011
10
202.55000000000001
20
-83.987499999999997
42
-0.41421356237309503
0
LWPOLYLINE
5
163
100
AcDbEntity
8
0
100
AcDbPolyline
90
8
70
1
43
0.0
10
224.48125000000002
20
-83.487500000000011
10
237.48125000000002
20
-83.487500000000026
42
-0.41421356237309503
10
237.98124999999999
20
-83.987499999999997
10
237.98125000000002
20
-96.987500000000011
42
-0.41421356237309503
10
237.48125000000002
20
-97.487500000000011
10
224.48125000000002
20
-97.487500000000011
42
-0.41421356237309503
10
223.98124999999999
20
-96.987500000000011
10
223.98124999999999
20
-83.987499999999997
42
-0.41421356237309503
0
LWPOLYLINE
5
164
100
AcDbEntity
8
0
100
AcDbPolyline
90
8
70
1
43
0.0
10
250.67500000000001
20
-83.487500000000011
10
263.67500000000001
20
-83.487499999999983
42
-0.41421356237309503
10
264.17500000000007
20
-83.987499999999997
10
264.17500000000007
20
-96.987500000000011
42
-0.41421356237309503
10
263.67500000000001
20
-97.487500000000011
10
250.67500000000001
20
-97.487500000000011
42
-0.41421356237309503
10
250.17500000000001
20
-96.987500000000011
10
250.17500000000007
20
-83.987499999999997
42
-0.41421356237309503
0
LWPOLYLINE
5
165
100
AcDbEntity
8
0
100
AcDbPolyline
90
8
70
1
43
0.0
10
269.72500000000002
20
-83.487500000000011
10
282.72500000000002
20
-83.487499999999983
42
-0.41421356237309503
10
283.22500000000002
20
-83.987499999999997
10
283.22500000000002
20
-96.987500000000011
42
-0.41421356237309503
10
282.72500000000002
20
-97.487500000000011
10
269.72500000000002
20
-97.487500000000011
42
-0.41421356237309503
10
269.22500000000002
20
-96.987500000000011
10
269.22500000000008
20
-83.987499999999997
42
-0.41421356237309503
0
LWPOLYLINE
5
166
100
AcDbEntity
8
0
100
AcDbPolyline
90
8
70
1
43
0.0
10
288.77499999999998
20
-83.487500000000011
10
301.77499999999998
20
-83.487499999999983
42
-0.41421356237309503
10
302.27499999999998
20
-83.987499999999997
10
302.27499999999998
20
-96.987500000000011
42
-0.41421356237309503
10
301.77499999999998
20
-97.487500000000011
10
288.77499999999998
20
-97.487499999999983
42
-0.41421356237309503
10
288.27499999999998
20
-96.987500000000011
10
288.27499999999998
20
-83.987499999999997
42
-0.41421356237309503
0
LWPOLYLINE
5
167
100
AcDbEntity
8
0
100
AcDbPolyline
90
44
70
1
43
0.0
10
0
20
-98.012500000000017
10
0
20
-1.9999999999999931
42
-0.41421356237309415
10
1.9999999999999998
20
0
10
6.5249999999999995
20
0
10
6.5249999999999995
20
3.0000000745058064
42
-0.41421356237309598
10
8.5250000000000004
20
5.0000000745058051
10
10.525
20
5.0000000745058051
42
-0.41421356237309548
10
12.524999999999999
20
3.0000000745058069
10
12.524999999999999
20
0
10
230.36249999999998
20
0
10
230.36249999999998
20
3.0000000000000071
42
-0.41421356237309764
10
232.36249999999998
20
5.0000000000000071
10
234.36250000000001
20
5.000000000000016
42
-0.4142135623730982
10
236.36250000000001
20
3.0000000000000004
10
236.36250000000001
20
0
10
292.27499999999998
20
0
10
292.27499999999998
20
3.0000000000000004
42
-0.4142135623730982
10
294.27499999999998
20
5.0000000000000142
10
296.27499999999998
20
5.000000000000016
42
-0.41421356237309742
10
298.27499999999998
20
3.0000000000000067
10
298.27499999999998
20
0
10
302.80000000000007
20
-4.163336342344337e-15
42
-0.41421356237309187
10
304.80000000000007
20
-1.9999999999999751
10
304.80000000000007
20
-98.012500000000017
42
-0.41421356237309503
10
302.80000000000007
20
-100.0125
10
298.27499999999998
20
-100.0125
10
298.27499999999992
20
-103.01250000000002
42
-0.41421356237309764
10
296.27499999999998
20
-105.0125
10
294.27499999999998
20
-105.01250000000002
42
-0.41421356237309764
10
292.27499999999998
20
-103.01250000000002
10
292.27499999999998
20
-100.0125
10
236.36250000000001
20
-100.0125
10
236.36249999999995
20
-103.01250000000002
42
-0.41421356237309764
10
234.36250000000001
20
-105.0125
10
232.36249999999998
20
-105.01250000000002
42
-0.41421356237309764
10
230.36249999999998
20
-103.01250000000002
10
230.36249999999998
20
-100.0125
10
12.524999999999999
20
-100.0125
10
12.525000000000004
20
-103.01250000000002
42
-0.41421356237309664
10
10.525
20
-105.0125
10
8.5249999999999986
20
-105.0125
42
-0.41421356237309698
10
6.5249999999999932
20
-103.01250000000002
10
6.5249999999999995
20
-100.0125
10
2
20
-100.0125
42
-0.4142135623730967
0
CIRCLE
5
168
100
AcDbEntity
8
0
100
AcDbCircle
10
9.5000001415610313
20
-102.50000152736902
30
0
40
1.1999999999999922
210
0
220
0
230
1
0
CIRCLE
5
169
100
AcDbEntity
8
0
100
AcDbCircle
10
295.27499999999998
20
2.500000037252903
30
0
40
1.1999999999999986
210
0
220
0
230
1
0
CIRCLE
5
170
100
AcDbEntity
8
0
100
AcDbCircle
10
233.36250000000001
20
2.500000037252903
30
0
40
1.1999999999999997
210
0
220
0
230
1
0
CIRCLE
5
171
100
AcDbEntity
8
0
100
AcDbCircle
10
9.5250000000000004
20
2.500000037252903
30
0
40
1.2
210
0
220
0
230
1
0
CIRCLE
5
172
100
AcDbEntity
8
0
100
AcDbCircle
10
295.27499999999998
20
-102.5125
30
0
40
1.1999999999999922
210
0
220
0
230
1
0
CIRCLE
5
173
100
AcDbEntity
8
0
100
AcDbCircle
10
233.36250000000001
20
-102.5125
30
0
40
1.1999999999999993
210
0
220
0
230
1
0
ENDSEC
0
SECTION
2
OBJECTS
0
DICTIONARY
5
C
100
AcDbDictionary
3
ACAD_GROUP
350
D
3
ACAD_MLINESTYLE
350
17
0
DICTIONARY
5
D
100
AcDbDictionary
0
DICTIONARY
5
1A
330
C
100
AcDbDictionary
0
DICTIONARY
5
17
100
AcDbDictionary
0
ENDSEC
0
EOF
