0
SECTION
2
HEADER
9
$INSUNITS
70
4
9
$ACADVER
1
AC1014
9
$HANDSEED
5
FFFF
0
ENDSEC
0
SECTION
2
TABLES
0
TABLE
2
VPORT
5
8
100
AcDbSymbolTable
0
ENDTAB
0
TABLE
2
LTYPE
5
5
100
AcDbSymbolTable
0
LTYPE
5
14
100
AcDbSymbolTableRecord
100
AcDbLinetypeTableRecord
2
BYBLOCK
70
0
0
LTYPE
5
15
100
AcDbSymbolTableRecord
100
AcDbLinetypeTableRecord
2
BYLAYER
70
0
0
ENDTAB
0
TABLE
2
LAYER
5
2
100
AcDbSymbolTable
70
2
0
LAYER
5
50
100
AcDbSymbolTableRecord
100
AcDbLayerTableRecord
2
0
70
0
6
CONTINUOUS
0
ENDTAB
0
TABLE
2
STYLE
5
3
100
AcDbSymbolTable
70
1
0
STYLE
5
11
100
AcDbSymbolTableRecord
100
AcDbTextStyleTableRecord
2
STANDARD
70
0
0
ENDTAB
0
TABLE
2
VIEW
5
6
100
AcDbSymbolTable
70
0
0
ENDTAB
0
TABLE
2
UCS
5
7
100
AcDbSymbolTable
70
0
0
ENDTAB
0
TABLE
2
APPID
5
9
100
AcDbSymbolTable
70
2
0
APPID
5
12
100
AcDbSymbolTableRecord
100
AcDbRegAppTableRecord
2
ACAD
70
0
0
ENDTAB
0
TABLE
2
DIMSTYLE
5
A
100
AcDbSymbolTable
70
1
0
ENDTAB
0
TABLE
2
BLOCK_RECORD
5
1
100
AcDbSymbolTable
70
1
0
BLOCK_RECORD
5
1F
100
AcDbSymbolTableRecord
100
AcDbBlockTableRecord
2
*MODEL_SPACE
0
BLOCK_RECORD
5
1B
100
AcDbSymbolTableRecord
100
AcDbBlockTableRecord
2
*PAPER_SPACE
0
ENDTAB
0
ENDSEC
0
SECTION
2
BLOCKS
0
BLOCK
5
20
100
AcDbEntity
100
AcDbBlockBegin
2
*MODEL_SPACE
0
ENDBLK
5
21
100
AcDbEntity
100
AcDbBlockEnd
0
BLOCK
5
1C
100
AcDbEntity
100
AcDbBlockBegin
2
*PAPER_SPACE
0
ENDBLK
5
1D
100
AcDbEntity
100
AcDbBlockEnd
0
ENDSEC
0
SECTION
2
ENTITIES
0
ARC
5
100
100
AcDbEntity
8
0
100
AcDbCircle
10
-24.456250000000011
20
-33.981250000000003
30
0
40
0.50000000000000266
210
0
220
0
230
1
100
AcDbArc
50
0
51
90
0
LINE
5
101
100
AcDbEntity
8
0
100
AcDbLine
10
-23.956250000000008
20
-46.981250000000003
30
0
11
-23.956250000000008
21
-34.00624999999998
31
0
0
ARC
5
102
100
AcDbEntity
8
0
100
AcDbCircle
10
-24.456250000000018
20
-46.981250000000003
30
0
40
0.50000000000000711
210
0
220
0
230
1
100
AcDbArc
50
270.0000000000004
51
357.13724019745945
0
LINE
5
103
100
AcDbEntity
8
0
100
AcDbLine
10
-37.456249999999997
20
-47.481250000000003
30
0
11
-24.456250000000015
21
-47.48125000000001
31
0
0
ARC
5
104
100
AcDbEntity
8
0
100
AcDbCircle
10
-37.456249999999997
20
-46.981250000000003
30
0
40
0.50000000000000522
210
0
220
0
230
1
100
AcDbArc
50
182.86277014518038
51
270
0
LINE
5
105
100
AcDbEntity
8
0
100
AcDbLine
10
-37.956250000000004
20
-34.006249999999987
30
0
11
-37.956250000000004
21
-46.981250000000003
31
0
0
LINE
5
106
100
AcDbEntity
8
0
100
AcDbLine
10
-37.856250000000024
20
-33.706249999999983
30
0
11
-37.931250000000013
21
-33.847916666666642
31
0
0
LINE
5
107
100
AcDbEntity
8
0
100
AcDbLine
10
-37.931250000000013
20
-33.847916666666642
30
0
11
-37.955680886652203
21
-33.981293170608048
31
0
0
LINE
5
108
100
AcDbEntity
8
0
100
AcDbLine
10
-37.87383232721227
20
-33.706249999999997
30
0
11
-37.856250000000024
21
-33.706249999999983
31
0
0
ARC
5
109
100
AcDbEntity
8
0
100
AcDbCircle
10
-37.456250000000011
20
-33.981250000000003
30
0
40
0.49999999999999822
210
0
220
-0
230
1
100
AcDbArc
50
90
51
146.63298703076816
0
LINE
5
110
100
AcDbEntity
8
0
100
AcDbLine
10
-24.456250000000011
20
-33.481250000000003
30
0
11
-37.456250000000011
21
-33.481250000000003
31
0
0
LINE
5
111
100
AcDbEntity
8
0
100
AcDbLine
10
149.875
20
33.981250000000003
30
0
11
149.875
21
46.956249999999997
31
0
0
ARC
5
112
100
AcDbEntity
8
0
100
AcDbCircle
10
149.375
20
33.981250000000003
30
0
40
0.49999999999999822
210
0
220
0
230
1
100
AcDbArc
50
270
51
357.13762275732529
0
LINE
5
113
100
AcDbEntity
8
0
100
AcDbLine
10
136.375
20
33.481250000000003
30
0
11
149.375
21
33.481250000000003
31
0
0
ARC
5
114
100
AcDbEntity
8
0
100
AcDbCircle
10
136.375
20
33.981250000000003
30
0
40
0.49999999999999467
210
0
220
0
230
1
100
AcDbArc
50
182.86237501388933
51
270
0
LINE
5
115
100
AcDbEntity
8
0
100
AcDbLine
10
135.875
20
46.956249999999997
30
0
11
135.875
21
33.981250000000003
31
0
0
ARC
5
116
100
AcDbEntity
8
0
100
AcDbCircle
10
136.375
20
46.956249999999997
30
0
40
0.49999999999999822
210
0
220
-0
230
1
100
AcDbArc
50
90
51
177.13920998034123
0
LINE
5
117
100
AcDbEntity
8
0
100
AcDbLine
10
149.375
20
47.456249999999997
30
0
11
136.375
21
47.456249999999997
31
0
0
ARC
5
118
100
AcDbEntity
8
0
100
AcDbCircle
10
149.375
20
46.956249999999997
30
0
40
0.50000000000000089
210
0
220
-0
230
1
100
AcDbArc
50
2.8607942280510934
51
90
0
LINE
5
119
100
AcDbEntity
8
0
100
AcDbLine
10
130.82499999999999
20
33.981250000000003
30
0
11
130.82499999999999
21
46.956249999999997
31
0
0
ARC
5
120
100
AcDbEntity
8
0
100
AcDbCircle
10
130.32499999999999
20
33.981250000000003
30
0
40
0.49999999999999822
210
0
220
0
230
1
100
AcDbArc
50
270
51
357.13762275732529
0
LINE
5
121
100
AcDbEntity
8
0
100
AcDbLine
10
117.325
20
33.481250000000003
30
0
11
130.32499999999999
21
33.481250000000003
31
0
0
ARC
5
122
100
AcDbEntity
8
0
100
AcDbCircle
10
117.325
20
33.981249999999989
30
0
40
0.499999999999994
210
0
220
0
230
1
100
AcDbArc
50
182.86237501388757
51
270
0
LINE
5
123
100
AcDbEntity
8
0
100
AcDbLine
10
116.82499999999999
20
46.956249999999997
30
0
11
116.82499999999999
21
33.981250000000003
31
0
0
ARC
5
124
100
AcDbEntity
8
0
100
AcDbCircle
10
117.325
20
46.956250000000026
30
0
40
0.49999999999999822
210
0
220
0
230
1
100
AcDbArc
50
90.000000000001634
51
177.13920998034365
0
LINE
5
125
100
AcDbEntity
8
0
100
AcDbLine
10
130.32499999999999
20
47.456249999999997
30
0
11
117.32499999999999
21
47.456250000000026
31
0
0
ARC
5
126
100
AcDbEntity
8
0
100
AcDbCircle
10
130.32499999999999
20
46.956249999999997
30
0
40
0.50000000000000089
210
0
220
-0
230
1
100
AcDbArc
50
2.8607942280510934
51
90
0
LINE
5
127
100
AcDbEntity
8
0
100
AcDbLine
10
111.77500000000001
20
33.981250000000003
30
0
11
111.77500000000001
21
46.956249999999997
31
0
0
ARC
5
128
100
AcDbEntity
8
0
100
AcDbCircle
10
111.27500000000001
20
33.981250000000017
30
0
40
0.50000000000001155
210
0
220
0
230
1
100
AcDbArc
50
270
51
357.13762275732279
0
LINE
5
129
100
AcDbEntity
8
0
100
AcDbLine
10
98.275000000000006
20
33.481250000000003
30
0
11
111.27500000000001
21
33.481250000000003
31
0
0
ARC
5
130
100
AcDbEntity
8
0
100
AcDbCircle
10
98.275000000000006
20
33.981250000000003
30
0
40
0.49999999999999517
210
0
220
0
230
1
100
AcDbArc
50
182.8623750138901
51
270
0
LINE
5
131
100
AcDbEntity
8
0
100
AcDbLine
10
97.77500000000002
20
46.956249999999997
30
0
11
97.77500000000002
21
33.981250000000003
31
0
0
ARC
5
132
100
AcDbEntity
8
0
100
AcDbCircle
10
98.275000000000006
20
46.956249999999997
30
0
40
0.50000000000000711
210
0
220
0
230
1
100
AcDbArc
50
90.000000000001634
51
177.1392099803426
0
LINE
5
133
100
AcDbEntity
8
0
100
AcDbLine
10
111.27500000000001
20
47.456249999999997
30
0
11
98.274999999999991
21
47.456250000000004
31
0
0
ARC
5
134
100
AcDbEntity
8
0
100
AcDbCircle
10
111.27500000000001
20
46.956249999999983
30
0
40
0.50000000000001865
210
0
220
-0
230
1
100
AcDbArc
50
2.8607942280502012
51
90
0
LINE
5
135
100
AcDbEntity
8
0
100
AcDbLine
10
-135.875
20
33.981250000000003
30
0
11
-135.875
21
46.956249999999997
31
0
0
ARC
5
136
100
AcDbEntity
8
0
100
AcDbCircle
10
-136.375
20
33.981250000000003
30
0
40
0.49999999999999822
210
0
220
0
230
1
100
AcDbArc
50
270
51
357.13762275732529
0
LINE
5
137
100
AcDbEntity
8
0
100
AcDbLine
10
-149.375
20
33.481250000000003
30
0
11
-136.375
21
33.481250000000003
31
0
0
ARC
5
138
100
AcDbEntity
8
0
100
AcDbCircle
10
-149.375
20
33.981250000000003
30
0
40
0.49999999999999517
210
0
220
0
230
1
100
AcDbArc
50
182.8623750138901
51
270
0
LINE
5
139
100
AcDbEntity
8
0
100
AcDbLine
10
-149.875
20
46.956249999999997
30
0
11
-149.875
21
33.981250000000003
31
0
0
ARC
5
140
100
AcDbEntity
8
0
100
AcDbCircle
10
-149.375
20
46.956249999999997
30
0
40
0.49999999999999822
210
0
220
-0
230
1
100
AcDbArc
50
90
51
177.13920998034109
0
LINE
5
141
100
AcDbEntity
8
0
100
AcDbLine
10
-136.375
20
47.456249999999997
30
0
11
-149.375
21
47.456249999999997
31
0
0
ARC
5
142
100
AcDbEntity
8
0
100
AcDbCircle
10
-136.375
20
46.956249999999997
30
0
40
0.50000000000000011
210
0
220
-0
230
1
100
AcDbArc
50
2.8607942280485443
51
90
0
LINE
5
143
100
AcDbEntity
8
0
100
AcDbLine
10
-54.912500000000009
20
33.981250000000003
30
0
11
-54.912500000000009
21
46.956249999999997
31
0
0
ARC
5
144
100
AcDbEntity
8
0
100
AcDbCircle
10
-55.412500000000009
20
33.981250000000003
30
0
40
0.49999999999999822
210
0
220
0
230
1
100
AcDbArc
50
270
51
357.13762275732529
0
LINE
5
145
100
AcDbEntity
8
0
100
AcDbLine
10
-68.412500000000009
20
33.481250000000003
30
0
11
-55.412500000000009
21
33.481250000000003
31
0
0
ARC
5
146
100
AcDbEntity
8
0
100
AcDbCircle
10
-68.412500000000009
20
33.981250000000017
30
0
40
0.50000000000001399
210
0
220
0
230
1
100
AcDbArc
50
182.86237501389243
51
270
0
LINE
5
147
100
AcDbEntity
8
0
100
AcDbLine
10
-68.912500000000009
20
46.956249999999997
30
0
11
-68.912500000000009
21
33.981250000000003
31
0
0
ARC
5
148
100
AcDbEntity
8
0
100
AcDbCircle
10
-68.412499999999994
20
46.956249999999983
30
0
40
0.50000000000001599
210
0
220
0
230
1
100
AcDbArc
50
90.000000000001634
51
177.13920998033882
0
LINE
5
149
100
AcDbEntity
8
0
100
AcDbLine
10
-55.412500000000023
20
47.456249999999997
30
0
11
-68.412500000000009
21
47.456249999999997
31
0
0
ARC
5
150
100
AcDbEntity
8
0
100
AcDbCircle
10
-55.412500000000023
20
46.956249999999997
30
0
40
0.50000000000000844
210
0
220
-0
230
1
100
AcDbArc
50
2.8607942280477796
51
90
0
LINE
5
151
100
AcDbEntity
8
0
100
AcDbLine
10
-73.962500000000006
20
33.981250000000003
30
0
11
-73.962500000000006
21
46.956249999999997
31
0
0
ARC
5
152
100
AcDbEntity
8
0
100
AcDbCircle
10
-74.462500000000006
20
33.981250000000003
30
0
40
0.49999999999999822
210
0
220
0
230
1
100
AcDbArc
50
270
51
357.13762275732529
0
LINE
5
153
100
AcDbEntity
8
0
100
AcDbLine
10
-87.462500000000006
20
33.481250000000003
30
0
11
-74.462500000000006
21
33.481250000000003
31
0
0
ARC
5
154
100
AcDbEntity
8
0
100
AcDbCircle
10
-87.462500000000006
20
33.981250000000017
30
0
40
0.50000000000001399
210
0
220
0
230
1
100
AcDbArc
50
182.86237501389243
51
270
0
LINE
5
155
100
AcDbEntity
8
0
100
AcDbLine
10
-87.96250000000002
20
46.956249999999997
30
0
11
-87.96250000000002
21
33.981250000000003
31
0
0
ARC
5
156
100
AcDbEntity
8
0
100
AcDbCircle
10
-87.462500000000006
20
46.956249999999983
30
0
40
0.50000000000001599
210
0
220
-0
230
1
100
AcDbArc
50
90
51
177.13920998033882
0
LINE
5
157
100
AcDbEntity
8
0
100
AcDbLine
10
-74.46250000000002
20
47.456249999999997
30
0
11
-87.462500000000006
21
47.456249999999997
31
0
0
ARC
5
158
100
AcDbEntity
8
0
100
AcDbCircle
10
-74.46250000000002
20
46.956249999999997
30
0
40
0.5000000000000081
210
0
220
-0
230
1
100
AcDbArc
50
2.8607942280462502
51
90
0
LINE
5
159
100
AcDbEntity
8
0
100
AcDbLine
10
-93.012500000000017
20
33.981250000000003
30
0
11
-93.012500000000017
21
46.956249999999997
31
0
0
ARC
5
160
100
AcDbEntity
8
0
100
AcDbCircle
10
-93.512500000000003
20
33.981250000000003
30
0
40
0.49999999999999822
210
0
220
0
230
1
100
AcDbArc
50
270
51
357.13762275732529
0
LINE
5
161
100
AcDbEntity
8
0
100
AcDbLine
10
-106.51250000000002
20
33.481250000000003
30
0
11
-93.512500000000003
21
33.481250000000003
31
0
0
ARC
5
162
100
AcDbEntity
8
0
100
AcDbCircle
10
-106.51250000000002
20
33.981250000000003
30
0
40
0.49999999999999517
210
0
220
0
230
1
100
AcDbArc
50
182.8623750138901
51
270
0
LINE
5
163
100
AcDbEntity
8
0
100
AcDbLine
10
-107.0125
20
46.956249999999997
30
0
11
-107.0125
21
33.981250000000003
31
0
0
ARC
5
164
100
AcDbEntity
8
0
100
AcDbCircle
10
-106.51250000000002
20
46.956249999999997
30
0
40
0.50000000000000711
210
0
220
0
230
1
100
AcDbArc
50
90.000000000001634
51
177.13920998034109
0
LINE
5
165
100
AcDbEntity
8
0
100
AcDbLine
10
-93.512500000000003
20
47.456249999999997
30
0
11
-106.51250000000003
21
47.456250000000004
31
0
0
ARC
5
166
100
AcDbEntity
8
0
100
AcDbCircle
10
-93.512500000000017
20
46.956249999999997
30
0
40
0.50000000000000011
210
0
220
-0
230
1
100
AcDbArc
50
2.8607942280487997
51
89.99999999999838
0
LINE
5
167
100
AcDbEntity
8
0
100
AcDbLine
10
-112.0625
20
33.981250000000003
30
0
11
-112.0625
21
46.956249999999997
31
0
0
ARC
5
168
100
AcDbEntity
8
0
100
AcDbCircle
10
-112.5625
20
33.981249999999989
30
0
40
0.49999999999998934
210
0
220
0
230
1
100
AcDbArc
50
270
51
357.13762275732836
0
LINE
5
169
100
AcDbEntity
8
0
100
AcDbLine
10
-125.56249999999999
20
33.481250000000003
30
0
11
-112.5625
21
33.481249999999996
31
0
0
ARC
5
170
100
AcDbEntity
8
0
100
AcDbCircle
10
-125.56249999999999
20
33.981250000000003
30
0
40
0.49999999999999517
210
0
220
0
230
1
100
AcDbArc
50
182.8623750138901
51
270
0
LINE
5
171
100
AcDbEntity
8
0
100
AcDbLine
10
-126.06250000000001
20
46.956249999999997
30
0
11
-126.06250000000001
21
33.981250000000003
31
0
0
ARC
5
172
100
AcDbEntity
8
0
100
AcDbCircle
10
-125.56249999999999
20
46.956249999999997
30
0
40
0.49999999999999822
210
0
220
-0
230
1
100
AcDbArc
50
90
51
177.13920998034033
0
LINE
5
173
100
AcDbEntity
8
0
100
AcDbLine
10
-112.5625
20
47.456249999999997
30
0
11
-125.56249999999999
21
47.456249999999997
31
0
0
ARC
5
174
100
AcDbEntity
8
0
100
AcDbCircle
10
-112.5625
20
46.956250000000026
30
0
40
0.49999999999999789
210
0
220
-0
230
1
100
AcDbArc
50
2.8607942280429364
51
90
0
LINE
5
175
100
AcDbEntity
8
0
100
AcDbLine
10
26.049999999999976
20
33.981250000000003
30
0
11
26.049999999999976
21
46.956249999999997
31
0
0
ARC
5
176
100
AcDbEntity
8
0
100
AcDbCircle
10
25.549999999999979
20
33.98125000000001
30
0
40
0.50000000000000266
210
0
220
0
230
1
100
AcDbArc
50
270
51
357.13762275732529
0
LINE
5
177
100
AcDbEntity
8
0
100
AcDbLine
10
12.549999999999981
20
33.481250000000003
30
0
11
25.549999999999979
21
33.48125000000001
31
0
0
ARC
5
178
100
AcDbEntity
8
0
100
AcDbCircle
10
12.549999999999981
20
33.981250000000003
30
0
40
0.49999999999999956
210
0
220
0
230
1
100
AcDbArc
50
182.8623750138901
51
270
0
LINE
5
179
100
AcDbEntity
8
0
100
AcDbLine
10
12.049999999999981
20
46.956249999999997
30
0
11
12.049999999999981
21
33.981250000000003
31
0
0
ARC
5
180
100
AcDbEntity
8
0
100
AcDbCircle
10
12.550000000000001
20
46.956249999999997
30
0
40
0.50000000000000711
210
0
220
0
230
1
100
AcDbArc
50
90.00000000000081
51
177.13920998034109
0
LINE
5
181
100
AcDbEntity
8
0
100
AcDbLine
10
25.549999999999979
20
47.456249999999997
30
0
11
12.549999999999994
21
47.456250000000004
31
0
0
ARC
5
182
100
AcDbEntity
8
0
100
AcDbCircle
10
25.549999999999962
20
46.956249999999997
30
0
40
0.50000000000000888
210
0
220
-0
230
1
100
AcDbArc
50
2.8607942280485443
51
89.999999999997954
0
LINE
5
183
100
AcDbEntity
8
0
100
AcDbLine
10
7.0000000000000009
20
33.981250000000003
30
0
11
7.0000000000000009
21
46.956249999999997
31
0
0
ARC
5
184
100
AcDbEntity
8
0
100
AcDbCircle
10
6.5
20
33.981250000000003
30
0
40
0.49999999999999822
210
0
220
0
230
1
100
AcDbArc
50
270
51
357.13762275732529
0
LINE
5
185
100
AcDbEntity
8
0
100
AcDbLine
10
-6.5
20
33.481250000000003
30
0
11
6.5
21
33.481250000000003
31
0
0
ARC
5
186
100
AcDbEntity
8
0
100
AcDbCircle
10
-6.5
20
33.981250000000003
30
0
40
0.50000000000000022
210
0
220
0
230
1
100
AcDbArc
50
182.86237501388933
51
270
0
LINE
5
187
100
AcDbEntity
8
0
100
AcDbLine
10
-7.0000000000000009
20
46.956249999999997
30
0
11
-7.0000000000000009
21
33.981250000000003
31
0
0
ARC
5
188
100
AcDbEntity
8
0
100
AcDbCircle
10
-6.4999999999999867
20
46.956249999999997
30
0
40
0.50000000000000711
210
0
220
0
230
1
100
AcDbArc
50
90.00000000000081
51
177.13920998034109
0
LINE
5
189
100
AcDbEntity
8
0
100
AcDbLine
10
6.4999999999999947
20
47.456249999999997
30
0
11
-6.4999999999999938
21
47.456250000000004
31
0
0
ARC
5
190
100
AcDbEntity
8
0
100
AcDbCircle
10
6.4999999999999867
20
46.956249999999997
30
0
40
0.50000000000000622
210
0
220
-0
230
1
100
AcDbArc
50
2.8607942280477796
51
89.999999999999076
0
LINE
5
191
100
AcDbEntity
8
0
100
AcDbLine
10
-12.05000000000001
20
33.981250000000003
30
0
11
-12.05000000000001
21
46.956249999999997
31
0
0
ARC
5
192
100
AcDbEntity
8
0
100
AcDbCircle
10
-12.55000000000001
20
33.981250000000003
30
0
40
0.49999999999999822
210
0
220
0
230
1
100
AcDbArc
50
270
51
357.13762275732529
0
LINE
5
193
100
AcDbEntity
8
0
100
AcDbLine
10
-25.550000000000004
20
33.481250000000003
30
0
11
-12.55000000000001
21
33.481250000000003
31
0
0
ARC
5
194
100
AcDbEntity
8
0
100
AcDbCircle
10
-25.550000000000004
20
33.981250000000003
30
0
40
0.49999999999999956
210
0
220
0
230
1
100
AcDbArc
50
182.8623750138901
51
270
0
LINE
5
195
100
AcDbEntity
8
0
100
AcDbLine
10
-26.050000000000004
20
46.956249999999997
30
0
11
-26.050000000000004
21
33.981250000000003
31
0
0
ARC
5
196
100
AcDbEntity
8
0
100
AcDbCircle
10
-25.550000000000001
20
46.956249999999997
30
0
40
0.50000000000000711
210
0
220
0
230
1
100
AcDbArc
50
90.000000000000398
51
177.13920998034109
0
LINE
5
197
100
AcDbEntity
8
0
100
AcDbLine
10
-12.550000000000018
20
47.456249999999997
30
0
11
-25.550000000000004
21
47.456250000000004
31
0
0
ARC
5
198
100
AcDbEntity
8
0
100
AcDbCircle
10
-12.550000000000018
20
46.956249999999997
30
0
40
0.50000000000000588
210
0
220
-0
230
1
100
AcDbArc
50
2.8607942280462502
51
90
0
LINE
5
199
100
AcDbEntity
8
0
100
AcDbLine
10
-31.100000000000012
20
33.981250000000003
30
0
11
-31.100000000000012
21
46.956249999999997
31
0
0
ARC
5
200
100
AcDbEntity
8
0
100
AcDbCircle
10
-31.600000000000009
20
33.981250000000003
30
0
40
0.49999999999999822
210
0
220
0
230
1
100
AcDbArc
50
270
51
357.13762275732608
0
LINE
5
201
100
AcDbEntity
8
0
100
AcDbLine
10
-44.600000000000009
20
33.481250000000003
30
0
11
-31.600000000000009
21
33.481250000000003
31
0
0
ARC
5
202
100
AcDbEntity
8
0
100
AcDbCircle
10
-44.600000000000009
20
33.981250000000003
30
0
40
0.50000000000000333
210
0
220
0
230
1
100
AcDbArc
50
182.8623750138886
51
270
0
LINE
5
203
100
AcDbEntity
8
0
100
AcDbLine
10
-45.100000000000009
20
46.956249999999997
30
0
11
-45.100000000000009
21
33.981250000000003
31
0
0
ARC
5
204
100
AcDbEntity
8
0
100
AcDbCircle
10
-44.59999999999998
20
46.956249999999997
30
0
40
0.50000000000000711
210
0
220
0
230
1
100
AcDbArc
50
90.000000000001634
51
177.13920998034109
0
LINE
5
205
100
AcDbEntity
8
0
100
AcDbLine
10
-31.600000000000019
20
47.456249999999997
30
0
11
-44.599999999999994
21
47.456250000000004
31
0
0
ARC
5
206
100
AcDbEntity
8
0
100
AcDbCircle
10
-31.600000000000019
20
46.956250000000011
30
0
40
0.50000000000000366
210
0
220
-0
230
1
100
AcDbArc
50
2.8607942280470149
51
90
0
LINE
5
207
100
AcDbEntity
8
0
100
AcDbLine
10
49.862499999999983
20
33.981250000000003
30
0
11
49.862499999999983
21
46.956249999999997
31
0
0
ARC
5
208
100
AcDbEntity
8
0
100
AcDbCircle
10
49.362499999999983
20
33.981250000000017
30
0
40
0.50000000000000711
210
0
220
0
230
1
100
AcDbArc
50
270
51
357.1376227573237
0
LINE
5
209
100
AcDbEntity
8
0
100
AcDbLine
10
36.362499999999976
20
33.481250000000003
30
0
11
49.362499999999983
21
33.48125000000001
31
0
0
ARC
5
210
100
AcDbEntity
8
0
100
AcDbCircle
10
36.362499999999976
20
33.981250000000003
30
0
40
0.49999999999999889
210
0
220
0
230
1
100
AcDbArc
50
182.8623750138886
51
270
0
LINE
5
211
100
AcDbEntity
8
0
100
AcDbLine
10
35.862499999999976
20
46.956249999999997
30
0
11
35.862499999999976
21
33.981250000000003
31
0
0
ARC
5
212
100
AcDbEntity
8
0
100
AcDbCircle
10
36.362499999999997
20
46.956249999999997
30
0
40
0.50000000000000711
210
0
220
0
230
1
100
AcDbArc
50
90.00000000000081
51
177.13920998034286
0
LINE
5
213
100
AcDbEntity
8
0
100
AcDbLine
10
49.362499999999983
20
47.456249999999997
30
0
11
36.36249999999999
21
47.456250000000004
31
0
0
ARC
5
214
100
AcDbEntity
8
0
100
AcDbCircle
10
49.362499999999969
20
46.95624999999999
30
0
40
0.50000000000001832
210
0
220
-0
230
1
100
AcDbArc
50
2.8607942280493091
51
89.99999999999838
0
LINE
5
215
100
AcDbEntity
8
0
100
AcDbLine
10
68.912500000000009
20
33.981250000000003
30
0
11
68.912500000000009
21
46.956249999999997
31
0
0
ARC
5
216
100
AcDbEntity
8
0
100
AcDbCircle
10
68.412499999999994
20
33.981250000000003
30
0
40
0.49999999999999822
210
0
220
0
230
1
100
AcDbArc
50
270
51
357.13762275732529
0
LINE
5
217
100
AcDbEntity
8
0
100
AcDbLine
10
55.412499999999987
20
33.481250000000003
30
0
11
68.412499999999994
21
33.481250000000003
31
0
0
ARC
5
218
100
AcDbEntity
8
0
100
AcDbCircle
10
55.412499999999987
20
33.981250000000003
30
0
40
0.50000000000000355
210
0
220
0
230
1
100
AcDbArc
50
182.86237501388933
51
270
0
LINE
5
219
100
AcDbEntity
8
0
100
AcDbLine
10
54.91249999999998
20
46.956249999999997
30
0
11
54.91249999999998
21
33.981250000000003
31
0
0
ARC
5
220
100
AcDbEntity
8
0
100
AcDbCircle
10
55.412500000000009
20
46.956249999999997
30
0
40
0.50000000000000711
210
0
220
0
230
1
100
AcDbArc
50
90.000000000001634
51
177.13920998034286
0
LINE
5
221
100
AcDbEntity
8
0
100
AcDbLine
10
68.412499999999994
20
47.456249999999997
30
0
11
55.412499999999994
21
47.456250000000004
31
0
0
ARC
5
222
100
AcDbEntity
8
0
100
AcDbCircle
10
68.412499999999994
20
46.956249999999997
30
0
40
0.50000000000000844
210
0
220
-0
230
1
100
AcDbArc
50
2.8607942280477796
51
90
0
LINE
5
223
100
AcDbEntity
8
0
100
AcDbLine
10
87.96250000000002
20
33.981250000000003
30
0
11
87.96250000000002
21
46.956249999999997
31
0
0
ARC
5
224
100
AcDbEntity
8
0
100
AcDbCircle
10
87.462500000000006
20
33.981250000000017
30
0
40
0.50000000000001155
210
0
220
0
230
1
100
AcDbArc
50
270
51
357.13762275732279
0
LINE
5
225
100
AcDbEntity
8
0
100
AcDbLine
10
74.462500000000006
20
33.481250000000003
30
0
11
87.462500000000006
21
33.481250000000003
31
0
0
ARC
5
226
100
AcDbEntity
8
0
100
AcDbCircle
10
74.462500000000006
20
33.981250000000003
30
0
40
0.500000000000004
210
0
220
0
230
1
100
AcDbArc
50
182.8623750138901
51
270
0
LINE
5
227
100
AcDbEntity
8
0
100
AcDbLine
10
73.962500000000006
20
46.956249999999997
30
0
11
73.962500000000006
21
33.981250000000003
31
0
0
ARC
5
228
100
AcDbEntity
8
0
100
AcDbCircle
10
74.46250000000002
20
46.956249999999997
30
0
40
0.50000000000000711
210
0
220
-0
230
1
100
AcDbArc
50
90
51
177.13920998034109
0
LINE
5
229
100
AcDbEntity
8
0
100
AcDbLine
10
87.462500000000006
20
47.456249999999997
30
0
11
74.46250000000002
21
47.456250000000004
31
0
0
ARC
5
230
100
AcDbEntity
8
0
100
AcDbCircle
10
87.462500000000006
20
46.956249999999983
30
0
40
0.50000000000001865
210
0
220
-0
230
1
100
AcDbArc
50
2.8607942280502012
51
90
0
LINE
5
231
100
AcDbEntity
8
0
100
AcDbLine
10
-149.875
20
23.168749999999999
30
0
11
-149.875
21
10.168750000000003
31
0
0
ARC
5
232
100
AcDbEntity
8
0
100
AcDbCircle
10
-149.375
20
23.143750000000001
30
0
40
0.49999999999999822
210
0
220
-0
230
1
100
AcDbArc
50
90
51
177.1392099803416
0
LINE
5
233
100
AcDbEntity
8
0
100
AcDbLine
10
-136.375
20
23.643750000000004
30
0
11
-149.375
21
23.643749999999997
31
0
0
ARC
5
234
100
AcDbEntity
8
0
100
AcDbCircle
10
-136.375
20
23.143750000000001
30
0
40
0.50000000000000011
210
0
220
-0
230
1
100
AcDbArc
50
2.8607942280485443
51
90
0
LINE
5
235
100
AcDbEntity
8
0
100
AcDbLine
10
-135.875
20
10.168749999999999
30
0
11
-135.875
21
23.168749999999996
31
0
0
ARC
5
236
100
AcDbEntity
8
0
100
AcDbCircle
10
-136.375
20
10.168749999999999
30
0
40
0.50000000000000044
210
0
220
0
230
1
100
AcDbArc
50
-90
51
0
0
LINE
5
237
100
AcDbEntity
8
0
100
AcDbLine
10
-149.375
20
9.6687500000000028
30
0
11
-136.375
21
9.6687499999999993
31
0
0
ARC
5
238
100
AcDbEntity
8
0
100
AcDbCircle
10
-149.375
20
10.168749999999999
30
0
40
0.50000000000000711
210
0
220
0
230
1
100
AcDbArc
50
180
51
270
0
LINE
5
239
100
AcDbEntity
8
0
100
AcDbLine
10
66.818749999999994
20
23.168749999999999
30
0
11
66.818749999999994
21
10.168750000000003
31
0
0
ARC
5
240
100
AcDbEntity
8
0
100
AcDbCircle
10
67.318749999999994
20
23.143750000000001
30
0
40
0.49999999999999822
210
0
220
-0
230
1
100
AcDbArc
50
90
51
177.13920998034058
0
LINE
5
241
100
AcDbEntity
8
0
100
AcDbLine
10
80.318749999999994
20
23.643750000000004
30
0
11
67.318749999999994
21
23.643749999999997
31
0
0
ARC
5
242
100
AcDbEntity
8
0
100
AcDbCircle
10
80.318749999999994
20
23.143750000000001
30
0
40
0.49999999999999967
210
0
220
-0
230
1
100
AcDbArc
50
2.8607942280475251
51
90
0
LINE
5
243
100
AcDbEntity
8
0
100
AcDbLine
10
80.81874999999998
20
10.168749999999999
30
0
11
80.81874999999998
21
23.168749999999996
31
0
0
ARC
5
244
100
AcDbEntity
8
0
100
AcDbCircle
10
80.318749999999994
20
10.168749999999999
30
0
40
0.50000000000000044
210
0
220
0
230
1
100
AcDbArc
50
-90
51
0
0
LINE
5
245
100
AcDbEntity
8
0
100
AcDbLine
10
67.318749999999994
20
9.6687500000000028
30
0
11
80.318749999999994
21
9.6687499999999993
31
0
0
ARC
5
246
100
AcDbEntity
8
0
100
AcDbCircle
10
67.318749999999994
20
10.168749999999999
30
0
40
0.50000000000000711
210
0
220
0
230
1
100
AcDbArc
50
180
51
270
0
LINE
5
247
100
AcDbEntity
8
0
100
AcDbLine
10
-147.49375000000001
20
4.1187499999999986
30
0
11
-147.49375000000001
21
-8.8812500000000032
31
0
0
ARC
5
248
100
AcDbEntity
8
0
100
AcDbCircle
10
-146.99375000000001
20
4.09375
30
0
40
0.50000000000000044
210
0
220
-0
230
1
100
AcDbArc
50
90
51
177.13920998034109
0
LINE
5
249
100
AcDbEntity
8
0
100
AcDbLine
10
-133.99375000000001
20
4.59375
30
0
11
-146.99375000000001
21
4.59375
31
0
0
ARC
5
250
100
AcDbEntity
8
0
100
AcDbCircle
10
-133.99375000000001
20
4.09375
30
0
40
0.49999999999999956
210
0
220
-0
230
1
100
AcDbArc
50
2.8607942280472702
51
90
0
LINE
5
251
100
AcDbEntity
8
0
100
AcDbLine
10
-133.49375000000003
20
-8.8812500000000032
30
0
11
-133.49375000000003
21
4.1187499999999968
31
0
0
ARC
5
252
100
AcDbEntity
8
0
100
AcDbCircle
10
-133.99375000000001
20
-8.8812500000000032
30
0
40
0.50000000000000044
210
0
220
0
230
1
100
AcDbArc
50
-90
51
0
0
LINE
5
253
100
AcDbEntity
8
0
100
AcDbLine
10
-146.99375000000001
20
-9.3812500000000032
30
0
11
-133.99375000000001
21
-9.381250000000005
31
0
0
ARC
5
254
100
AcDbEntity
8
0
100
AcDbCircle
10
-146.99375000000001
20
-8.8812500000000032
30
0
40
0.50000000000000711
210
0
220
0
230
1
100
AcDbArc
50
180
51
270
0
LINE
5
255
100
AcDbEntity
8
0
100
AcDbLine
10
69.199999999999989
20
4.1187499999999986
30
0
11
69.199999999999989
21
-8.8812500000000032
31
0
0
ARC
5
256
100
AcDbEntity
8
0
100
AcDbCircle
10
69.699999999999989
20
4.09375
30
0
40
0.50000000000000044
210
0
220
-0
230
1
100
AcDbArc
50
90
51
177.13920998034109
0
LINE
5
257
100
AcDbEntity
8
0
100
AcDbLine
10
82.699999999999974
20
4.59375
30
0
11
69.699999999999989
21
4.59375
31
0
0
ARC
5
258
100
AcDbEntity
8
0
100
AcDbCircle
10
82.699999999999974
20
4.0937499999999769
30
0
40
0.50000000000001876
210
0
220
-0
230
1
100
AcDbArc
50
2.8607942280507115
51
90
0
LINE
5
259
100
AcDbEntity
8
0
100
AcDbLine
10
83.200000000000003
20
-8.8812500000000032
30
0
11
83.200000000000003
21
4.1187499999999968
31
0
0
ARC
5
260
100
AcDbEntity
8
0
100
AcDbCircle
10
82.699999999999974
20
-8.8812499999999766
30
0
40
0.50000000000001266
210
0
220
0
230
1
100
AcDbArc
50
270
51
360
0
LINE
5
261
100
AcDbEntity
8
0
100
AcDbLine
10
69.699999999999989
20
-9.3812500000000032
30
0
11
82.699999999999974
21
-9.3812499999999908
31
0
0
ARC
5
262
100
AcDbEntity
8
0
100
AcDbCircle
10
69.699999999999989
20
-8.8812500000000032
30
0
40
0.49999999999999822
210
0
220
0
230
1
100
AcDbArc
50
180
51
270
0
LINE
5
263
100
AcDbEntity
8
0
100
AcDbLine
10
-142.73124999999999
20
-14.93125
30
0
11
-142.73124999999999
21
-27.931249999999999
31
0
0
ARC
5
264
100
AcDbEntity
8
0
100
AcDbCircle
10
-142.23124999999999
20
-14.956250000000001
30
0
40
0.50000000000000044
210
0
220
-0
230
1
100
AcDbArc
50
90
51
177.13920998034058
0
LINE
5
265
100
AcDbEntity
8
0
100
AcDbLine
10
-129.23124999999999
20
-14.456250000000001
30
0
11
-142.23124999999999
21
-14.456249999999999
31
0
0
ARC
5
266
100
AcDbEntity
8
0
100
AcDbCircle
10
-129.23124999999999
20
-14.956250000000001
30
0
40
0.50000000000000011
210
0
220
-0
230
1
100
AcDbArc
50
2.8607942280485443
51
90
0
LINE
5
267
100
AcDbEntity
8
0
100
AcDbLine
10
-128.73124999999999
20
-27.931249999999999
30
0
11
-128.73124999999999
21
-14.93125
31
0
0
ARC
5
268
100
AcDbEntity
8
0
100
AcDbCircle
10
-129.23124999999999
20
-27.931249999999999
30
0
40
0.49999999999999822
210
0
220
0
230
1
100
AcDbArc
50
-90
51
0
0
LINE
5
269
100
AcDbEntity
8
0
100
AcDbLine
10
-142.23124999999999
20
-28.431249999999999
30
0
11
-129.23124999999999
21
-28.431249999999999
31
0
0
ARC
5
270
100
AcDbEntity
8
0
100
AcDbCircle
10
-142.23124999999999
20
-27.931249999999999
30
0
40
0.50000000000002487
210
0
220
0
230
1
100
AcDbArc
50
180
51
270
0
LINE
5
271
100
AcDbEntity
8
0
100
AcDbLine
10
73.962500000000006
20
-14.93125
30
0
11
73.962500000000006
21
-27.931249999999999
31
0
0
ARC
5
272
100
AcDbEntity
8
0
100
AcDbCircle
10
74.462500000000006
20
-14.956250000000001
30
0
40
0.50000000000000044
210
0
220
-0
230
1
100
AcDbArc
50
90
51
177.13920998034058
0
LINE
5
273
100
AcDbEntity
8
0
100
AcDbLine
10
87.462500000000006
20
-14.456250000000001
30
0
11
74.462500000000006
21
-14.456249999999999
31
0
0
ARC
5
274
100
AcDbEntity
8
0
100
AcDbCircle
10
87.462500000000006
20
-14.95625000000002
30
0
40
0.50000000000001898
210
0
220
-0
230
1
100
AcDbArc
50
2.8607942280512213
51
90
0
LINE
5
275
100
AcDbEntity
8
0
100
AcDbLine
10
87.96250000000002
20
-27.931249999999999
30
0
11
87.96250000000002
21
-14.93125
31
0
0
ARC
5
276
100
AcDbEntity
8
0
100
AcDbCircle
10
87.462500000000006
20
-27.931249999999967
30
0
40
0.50000000000001155
210
0
220
0
230
1
100
AcDbArc
50
270
51
360
0
LINE
5
277
100
AcDbEntity
8
0
100
AcDbLine
10
74.462500000000006
20
-28.431249999999999
30
0
11
87.462500000000006
21
-28.431249999999977
31
0
0
ARC
5
278
100
AcDbEntity
8
0
100
AcDbCircle
10
74.462500000000006
20
-27.931249999999999
30
0
40
0.50000000000000711
210
0
220
0
230
1
100
AcDbArc
50
180
51
270
0
LINE
5
279
100
AcDbEntity
8
0
100
AcDbLine
10
-147.49375000000001
20
-33.981250000000003
30
0
11
-147.49375000000001
21
-46.98125000000001
31
0
0
ARC
5
280
100
AcDbEntity
8
0
100
AcDbCircle
10
-146.99375000000001
20
-34.006249999999987
30
0
40
0.50000000000000266
210
0
220
-0
230
1
100
AcDbArc
50
90
51
177.13920998034033
0
LINE
5
281
100
AcDbEntity
8
0
100
AcDbLine
10
-133.99375000000001
20
-33.506249999999987
30
0
11
-146.99375000000001
21
-33.50624999999998
31
0
0
ARC
5
282
100
AcDbEntity
8
0
100
AcDbCircle
10
-133.99375000000001
20
-34.006249999999987
30
0
40
0.50000000000000033
210
0
220
-0
230
1
100
AcDbArc
50
2.8607942280493091
51
90
0
LINE
5
283
100
AcDbEntity
8
0
100
AcDbLine
10
-133.49375000000003
20
-46.981250000000003
30
0
11
-133.49375000000003
21
-33.981249999999996
31
0
0
ARC
5
284
100
AcDbEntity
8
0
100
AcDbCircle
10
-133.99375000000001
20
-46.981250000000003
30
0
40
0.49999999999999822
210
0
220
0
230
1
100
AcDbArc
50
-90
51
0
0
LINE
5
285
100
AcDbEntity
8
0
100
AcDbLine
10
-146.99375000000001
20
-47.481250000000003
30
0
11
-133.99375000000001
21
-47.481250000000003
31
0
0
ARC
5
286
100
AcDbEntity
8
0
100
AcDbCircle
10
-146.99375000000001
20
-46.981250000000003
30
0
40
0.50000000000000711
210
0
220
0
230
1
100
AcDbArc
50
180
51
270
0
LINE
5
287
100
AcDbEntity
8
0
100
AcDbLine
10
-107.0125
20
-33.981250000000003
30
0
11
-107.0125
21
-46.98125000000001
31
0
0
ARC
5
288
100
AcDbEntity
8
0
100
AcDbCircle
10
-106.51250000000002
20
-34.006249999999987
30
0
40
0.50000000000000266
210
0
220
-0
230
1
100
AcDbArc
50
90
51
177.1392099803426
0
LINE
5
289
100
AcDbEntity
8
0
100
AcDbLine
10
-93.512500000000003
20
-33.506249999999987
30
0
11
-106.51250000000002
21
-33.50624999999998
31
0
0
ARC
5
290
100
AcDbEntity
8
0
100
AcDbCircle
10
-93.512500000000003
20
-34.006249999999987
30
0
40
0.49999999999999967
210
0
220
-0
230
1
100
AcDbArc
50
2.8607942280477796
51
90
0
LINE
5
291
100
AcDbEntity
8
0
100
AcDbLine
10
-93.012500000000017
20
-46.981250000000003
30
0
11
-93.012500000000017
21
-33.981249999999996
31
0
0
ARC
5
292
100
AcDbEntity
8
0
100
AcDbCircle
10
-93.512500000000017
20
-46.981250000000003
30
0
40
0.50000000000000711
210
0
220
0
230
1
100
AcDbArc
50
-89.99999999999838
51
0
0
LINE
5
293
100
AcDbEntity
8
0
100
AcDbLine
10
-106.51250000000002
20
-47.481250000000003
30
0
11
-93.512500000000003
21
-47.48125000000001
31
0
0
ARC
5
294
100
AcDbEntity
8
0
100
AcDbCircle
10
-106.51250000000002
20
-46.981250000000003
30
0
40
0.49999999999998934
210
0
220
0
230
1
100
AcDbArc
50
180
51
270
0
LINE
5
295
100
AcDbEntity
8
0
100
AcDbLine
10
31.099999999999991
20
-33.981250000000003
30
0
11
31.099999999999991
21
-46.98125000000001
31
0
0
ARC
5
296
100
AcDbEntity
8
0
100
AcDbCircle
10
31.600000000000001
20
-34.006249999999987
30
0
40
0.50000000000000266
210
0
220
-0
230
1
100
AcDbArc
50
90
51
177.13920998034186
0
LINE
5
297
100
AcDbEntity
8
0
100
AcDbLine
10
44.59999999999998
20
-33.506249999999987
30
0
11
31.600000000000001
21
-33.50624999999998
31
0
0
ARC
5
298
100
AcDbEntity
8
0
100
AcDbCircle
10
44.59999999999998
20
-34.006249999999987
30
0
40
0.49999999999999944
210
0
220
-0
230
1
100
AcDbArc
50
2.8607942280470149
51
90
0
LINE
5
299
100
AcDbEntity
8
0
100
AcDbLine
10
45.099999999999987
20
-46.981250000000003
30
0
11
45.099999999999987
21
-33.981249999999996
31
0
0
ARC
5
300
100
AcDbEntity
8
0
100
AcDbCircle
10
44.59999999999998
20
-46.981250000000003
30
0
40
0.50000000000000711
210
0
220
0
230
1
100
AcDbArc
50
-89.99999999999838
51
0
0
LINE
5
301
100
AcDbEntity
8
0
100
AcDbLine
10
31.600000000000001
20
-47.481250000000003
30
0
11
44.599999999999994
21
-47.48125000000001
31
0
0
ARC
5
302
100
AcDbEntity
8
0
100
AcDbCircle
10
31.600000000000009
20
-46.981250000000003
30
0
40
0.50000000000002043
210
0
220
0
230
1
100
AcDbArc
50
180
51
269.9999999999992
0
LINE
5
303
100
AcDbEntity
8
0
100
AcDbLine
10
71.581249999999983
20
-33.981250000000003
30
0
11
71.581249999999983
21
-46.98125000000001
31
0
0
ARC
5
304
100
AcDbEntity
8
0
100
AcDbCircle
10
72.081249999999983
20
-34.006249999999987
30
0
40
0.50000000000000266
210
0
220
-0
230
1
100
AcDbArc
50
90
51
177.13920998034109
0
LINE
5
305
100
AcDbEntity
8
0
100
AcDbLine
10
85.081249999999983
20
-33.506249999999987
30
0
11
72.081249999999983
21
-33.50624999999998
31
0
0
ARC
5
306
100
AcDbEntity
8
0
100
AcDbCircle
10
85.081249999999983
20
-34.006249999999987
30
0
40
0.50000000000000011
210
0
220
-0
230
1
100
AcDbArc
50
2.8607942280487997
51
90
0
LINE
5
307
100
AcDbEntity
8
0
100
AcDbLine
10
85.581249999999983
20
-46.981250000000003
30
0
11
85.581249999999983
21
-33.981249999999996
31
0
0
ARC
5
308
100
AcDbEntity
8
0
100
AcDbCircle
10
85.081249999999983
20
-46.981250000000003
30
0
40
0.50000000000000711
210
0
220
0
230
1
100
AcDbArc
50
-90
51
0
0
LINE
5
309
100
AcDbEntity
8
0
100
AcDbLine
10
72.081249999999983
20
-47.481250000000003
30
0
11
85.081249999999983
21
-47.48125000000001
31
0
0
ARC
5
310
100
AcDbEntity
8
0
100
AcDbCircle
10
72.081249999999997
20
-46.981250000000003
30
0
40
0.50000000000001599
210
0
220
0
230
1
100
AcDbArc
50
180
51
269.99999999999835
0
LINE
5
311
100
AcDbEntity
8
0
100
AcDbLine
10
149.875
20
10.168749999999999
30
0
11
149.875
21
23.143750000000001
31
0
0
ARC
5
312
100
AcDbEntity
8
0
100
AcDbCircle
10
149.375
20
10.168749999999999
30
0
40
0.50000000000000044
210
0
220
0
230
1
100
AcDbArc
50
270
51
357.13762275732574
0
LINE
5
313
100
AcDbEntity
8
0
100
AcDbLine
10
136.375
20
9.6687500000000028
30
0
11
149.375
21
9.6687499999999993
31
0
0
ARC
5
314
100
AcDbEntity
8
0
100
AcDbCircle
10
136.375
20
10.168749999999999
30
0
40
0.49999999999999534
210
0
220
0
230
1
100
AcDbArc
50
182.86237501389036
51
270
0
LINE
5
315
100
AcDbEntity
8
0
100
AcDbLine
10
135.875
20
23.143750000000001
30
0
11
135.875
21
10.168749999999999
31
0
0
ARC
5
316
100
AcDbEntity
8
0
100
AcDbCircle
10
136.375
20
23.143750000000001
30
0
40
0.49999999999999822
210
0
220
-0
230
1
100
AcDbArc
50
90
51
177.1392099803416
0
LINE
5
317
100
AcDbEntity
8
0
100
AcDbLine
10
149.375
20
23.643750000000004
30
0
11
136.375
21
23.643749999999997
31
0
0
ARC
5
318
100
AcDbEntity
8
0
100
AcDbCircle
10
149.375
20
23.143750000000001
30
0
40
0.50000000000000033
210
0
220
-0
230
1
100
AcDbArc
50
2.8607942280490546
51
90
0
LINE
5
319
100
AcDbEntity
8
0
100
AcDbLine
10
130.82499999999999
20
10.168749999999999
30
0
11
130.82499999999999
21
23.143750000000001
31
0
0
ARC
5
320
100
AcDbEntity
8
0
100
AcDbCircle
10
130.32499999999999
20
10.168749999999999
30
0
40
0.50000000000000044
210
0
220
0
230
1
100
AcDbArc
50
270
51
357.13762275732574
0
LINE
5
321
100
AcDbEntity
8
0
100
AcDbLine
10
117.325
20
9.6687500000000028
30
0
11
130.32499999999999
21
9.6687499999999993
31
0
0
ARC
5
322
100
AcDbEntity
8
0
100
AcDbCircle
10
117.325
20
10.168749999999982
30
0
40
0.49999999999999389
210
0
220
0
230
1
100
AcDbArc
50
182.86237501388732
51
270
0
LINE
5
323
100
AcDbEntity
8
0
100
AcDbLine
10
116.82499999999999
20
23.143750000000001
30
0
11
116.82499999999999
21
10.168749999999999
31
0
0
ARC
5
324
100
AcDbEntity
8
0
100
AcDbCircle
10
117.325
20
23.143750000000033
30
0
40
0.49999999999998934
210
0
220
-0
230
1
100
AcDbArc
50
90
51
177.13920998034212
0
LINE
5
325
100
AcDbEntity
8
0
100
AcDbLine
10
130.32499999999999
20
23.643750000000004
30
0
11
117.325
21
23.643750000000022
31
0
0
ARC
5
326
100
AcDbEntity
8
0
100
AcDbCircle
10
130.32499999999999
20
23.143750000000001
30
0
40
0.50000000000000033
210
0
220
-0
230
1
100
AcDbArc
50
2.8607942280490546
51
90
0
LINE
5
327
100
AcDbEntity
8
0
100
AcDbLine
10
111.77500000000001
20
10.168749999999999
30
0
11
111.77500000000001
21
23.143750000000001
31
0
0
ARC
5
328
100
AcDbEntity
8
0
100
AcDbCircle
10
111.27500000000001
20
10.168750000000031
30
0
40
0.50000000000001266
210
0
220
0
230
1
100
AcDbArc
50
270
51
357.13762275732307
0
LINE
5
329
100
AcDbEntity
8
0
100
AcDbLine
10
98.275000000000006
20
9.6687500000000028
30
0
11
111.27500000000001
21
9.6687500000000188
31
0
0
ARC
5
330
100
AcDbEntity
8
0
100
AcDbCircle
10
98.275000000000006
20
10.168749999999999
30
0
40
0.49999999999999517
210
0
220
0
230
1
100
AcDbArc
50
182.8623750138901
51
270
0
LINE
5
331
100
AcDbEntity
8
0
100
AcDbLine
10
97.77500000000002
20
23.143750000000001
30
0
11
97.77500000000002
21
10.168749999999999
31
0
0
ARC
5
332
100
AcDbEntity
8
0
100
AcDbCircle
10
98.275000000000006
20
23.143750000000001
30
0
40
0.49999999999999822
210
0
220
-0
230
1
100
AcDbArc
50
90
51
177.13920998034058
0
LINE
5
333
100
AcDbEntity
8
0
100
AcDbLine
10
111.27500000000001
20
23.643750000000004
30
0
11
98.275000000000006
21
23.643749999999997
31
0
0
ARC
5
334
100
AcDbEntity
8
0
100
AcDbCircle
10
111.27500000000001
20
23.143749999999979
30
0
40
0.50000000000001865
210
0
220
-0
230
1
100
AcDbArc
50
2.8607942280504561
51
90
0
LINE
5
335
100
AcDbEntity
8
0
100
AcDbLine
10
149.875
20
-46.981250000000003
30
0
11
149.875
21
-34.00624999999998
31
0
0
ARC
5
336
100
AcDbEntity
8
0
100
AcDbCircle
10
149.375
20
-46.981250000000003
30
0
40
0.49999999999999822
210
0
220
0
230
1
100
AcDbArc
50
270
51
357.13762275732682
0
LINE
5
337
100
AcDbEntity
8
0
100
AcDbLine
10
136.375
20
-47.481250000000003
30
0
11
149.375
21
-47.481250000000003
31
0
0
ARC
5
338
100
AcDbEntity
8
0
100
AcDbCircle
10
136.375
20
-46.981250000000003
30
0
40
0.49999999999999467
210
0
220
0
230
1
100
AcDbArc
50
182.8623750138886
51
270
0
LINE
5
339
100
AcDbEntity
8
0
100
AcDbLine
10
135.875
20
-34.006249999999987
30
0
11
135.875
21
-46.981250000000003
31
0
0
ARC
5
340
100
AcDbEntity
8
0
100
AcDbCircle
10
136.375
20
-34.006249999999987
30
0
40
0.50000000000000266
210
0
220
-0
230
1
100
AcDbArc
50
90
51
177.13920998034212
0
LINE
5
341
100
AcDbEntity
8
0
100
AcDbLine
10
149.375
20
-33.506249999999987
30
0
11
136.375
21
-33.50624999999998
31
0
0
ARC
5
342
100
AcDbEntity
8
0
100
AcDbCircle
10
149.375
20
-34.006249999999987
30
0
40
0.50000000000000056
210
0
220
-0
230
1
100
AcDbArc
50
2.8607942280502012
51
90
0
LINE
5
343
100
AcDbEntity
8
0
100
AcDbLine
10
130.82499999999999
20
-46.981250000000003
30
0
11
130.82499999999999
21
-34.00624999999998
31
0
0
ARC
5
344
100
AcDbEntity
8
0
100
AcDbCircle
10
130.32499999999999
20
-46.981250000000003
30
0
40
0.49999999999999822
210
0
220
0
230
1
100
AcDbArc
50
270
51
357.13762275732682
0
LINE
5
345
100
AcDbEntity
8
0
100
AcDbLine
10
117.325
20
-47.481250000000003
30
0
11
130.32499999999999
21
-47.481250000000003
31
0
0
ARC
5
346
100
AcDbEntity
8
0
100
AcDbCircle
10
117.325
20
-46.981250000000017
30
0
40
0.49999999999999428
210
0
220
0
230
1
100
AcDbArc
50
182.8623750138886
51
270
0
LINE
5
347
100
AcDbEntity
8
0
100
AcDbLine
10
116.82499999999999
20
-34.006249999999987
30
0
11
116.82499999999999
21
-46.981250000000003
31
0
0
ARC
5
348
100
AcDbEntity
8
0
100
AcDbCircle
10
117.325
20
-34.006249999999966
30
0
40
0.49999999999998934
210
0
220
-0
230
1
100
AcDbArc
50
90
51
177.1392099803426
0
LINE
5
349
100
AcDbEntity
8
0
100
AcDbLine
10
130.32499999999999
20
-33.506249999999987
30
0
11
117.325
21
-33.506249999999973
31
0
0
ARC
5
350
100
AcDbEntity
8
0
100
AcDbCircle
10
130.32499999999999
20
-34.006249999999987
30
0
40
0.50000000000000056
210
0
220
-0
230
1
100
AcDbArc
50
2.8607942280502012
51
90
0
LINE
5
351
100
AcDbEntity
8
0
100
AcDbLine
10
111.77500000000001
20
-46.981250000000003
30
0
11
111.77500000000001
21
-34.00624999999998
31
0
0
ARC
5
352
100
AcDbEntity
8
0
100
AcDbCircle
10
111.27500000000001
20
-46.981249999999974
30
0
40
0.50000000000001599
210
0
220
0
230
1
100
AcDbArc
50
270
51
357.1376227573229
0
LINE
5
353
100
AcDbEntity
8
0
100
AcDbLine
10
98.275000000000006
20
-47.481250000000003
30
0
11
111.27500000000001
21
-47.481249999999989
31
0
0
ARC
5
354
100
AcDbEntity
8
0
100
AcDbCircle
10
98.275000000000006
20
-46.981250000000003
30
0
40
0.50000000000001288
210
0
220
0
230
1
100
AcDbArc
50
182.86237501388999
51
270
0
LINE
5
355
100
AcDbEntity
8
0
100
AcDbLine
10
97.77500000000002
20
-34.006249999999987
30
0
11
97.77500000000002
21
-46.981250000000003
31
0
0
ARC
5
356
100
AcDbEntity
8
0
100
AcDbCircle
10
98.275000000000006
20
-34.006249999999987
30
0
40
0.50000000000000266
210
0
220
-0
230
1
100
AcDbArc
50
90
51
177.13920998034033
0
LINE
5
357
100
AcDbEntity
8
0
100
AcDbLine
10
111.27500000000001
20
-33.506249999999987
30
0
11
98.275000000000006
21
-33.50624999999998
31
0
0
ARC
5
358
100
AcDbEntity
8
0
100
AcDbCircle
10
111.27500000000001
20
-34.006250000000016
30
0
40
0.50000000000001843
210
0
220
-0
230
1
100
AcDbArc
50
2.8607942280502012
51
90
0
LINE
5
359
100
AcDbEntity
8
0
100
AcDbLine
10
130.82499999999999
20
-27.931249999999999
30
0
11
130.82499999999999
21
-14.956250000000001
31
0
0
ARC
5
360
100
AcDbEntity
8
0
100
AcDbCircle
10
130.32499999999999
20
-27.931249999999999
30
0
40
0.49999999999999822
210
0
220
0
230
1
100
AcDbArc
50
270
51
357.13762275732608
0
LINE
5
361
100
AcDbEntity
8
0
100
AcDbLine
10
117.325
20
-28.431249999999999
30
0
11
130.32499999999999
21
-28.431249999999999
31
0
0
ARC
5
362
100
AcDbEntity
8
0
100
AcDbCircle
10
117.325
20
-27.93125000000002
30
0
40
0.49999999999999356
210
0
220
0
230
1
100
AcDbArc
50
182.8623750138868
51
270
0
LINE
5
363
100
AcDbEntity
8
0
100
AcDbLine
10
116.82499999999999
20
-14.956250000000001
30
0
11
116.82499999999999
21
-27.931249999999999
31
0
0
ARC
5
364
100
AcDbEntity
8
0
100
AcDbCircle
10
117.325
20
-14.956249999999971
30
0
40
0.49999999999998934
210
0
220
-0
230
1
100
AcDbArc
50
90
51
177.13920998034365
0
LINE
5
365
100
AcDbEntity
8
0
100
AcDbLine
10
130.32499999999999
20
-14.456250000000001
30
0
11
117.325
21
-14.456249999999981
31
0
0
ARC
5
366
100
AcDbEntity
8
0
100
AcDbCircle
10
130.32499999999999
20
-14.956250000000001
30
0
40
0.50000000000000011
210
0
220
-0
230
1
100
AcDbArc
50
2.8607942280485443
51
90
0
LWPOLYLINE
5
367
100
AcDbEntity
8
0
100
AcDbPolyline
90
8
70
1
43
0.0
10
15.543749999999996
20
-46.981250000000003
42
0.41421356237308854
10
16.043749999999989
20
-47.48125000000001
10
22.043749999999992
20
-47.481250000000003
42
0.41421356237308204
10
22.543749999999992
20
-46.981250000000003
10
22.543749999999996
20
-32.981250000000003
42
0.41421356237309503
10
22.043749999999992
20
-32.481250000000003
10
16.043749999999992
20
-32.481250000000003
42
0.41421356237309503
10
15.543749999999992
20
-32.981250000000003
0
LWPOLYLINE
5
368
100
AcDbEntity
8
0
100
AcDbPolyline
90
88
70
1
43
0.0
10
-148.30000000000001
20
-53.406251782178927
10
-148.30000000000001
20
-56.506251782178872
42
0.41421356237309503
10
-147.80000000000001
20
-57.006251782178872
10
-146.90000000000001
20
-57.006251782178872
42
0.41421356237309503
10
-146.40000000000001
20
-56.506251782178872
10
-146.40000000000001
20
-50.506250000000001
42
-0.41421356237309503
10
-145.90000000000001
20
-50.006250000000001
10
83.987354315291498
20
-50.006249999999994
42
-0.41421356237306384
10
84.487354315291455
20
-50.506250000000001
10
84.487354315291455
20
-56.506251066923134
42
0.41421356237309503
10
84.987354315291441
20
-57.006251066923134
10
85.887354315291461
20
-57.006251066923134
42
0.41421356237310542
10
86.387354315291489
20
-56.506251066923134
10
86.387354315291446
20
-53.40625106692319
42
-0.41421356237309503
10
86.887354315291461
20
-52.90625106692319
10
88.087354315291449
20
-52.906251066923183
42
-0.41421356237310542
10
88.587354315291478
20
-53.40625106692319
10
88.587354315291464
20
-56.506251066923134
42
0.41421356237309503
10
89.087354315291464
20
-57.006251066923134
10
89.987354315291441
20
-57.006251066923134
42
0.41421356237309503
10
90.487354315291455
20
-56.506251066923134
10
90.487354315291498
20
-50.506250000000001
42
-0.41421356237310542
10
90.987354315291498
20
-50.006250000000001
10
145.90000188350677
20
-50.006249999999994
42
-0.41421356237310542
10
146.4000018835068
20
-50.506250000000001
10
146.4000018835068
20
-56.50624999999998
42
0.41421356237309503
10
146.9000018835068
20
-57.00624999999998
10
147.80000188350681
20
-57.006249999999987
42
0.41421356237309503
10
148.30000188350681
20
-56.50624999999998
10
148.30000188350681
20
-53.406250000000043
42
-0.41421356237308982
10
148.80000188350681
20
-52.906250000000057
10
150.0000018835068
20
-52.90625000000005
42
-0.41421356237309503
10
150.50000188350683
20
-53.406250000000057
10
150.50000188350683
20
-56.506249999999987
42
0.41421356237308982
10
151.00000188350683
20
-57.00624999999998
10
151.90000000000001
20
-57.006249999999987
42
0.41421356237309503
10
152.40000000000003
20
-56.50624999999998
10
152.40000000000001
20
56.506250000000009
42
0.41421356237309503
10
151.90000000000001
20
57.006250000000009
10
151.00000462532043
20
57.006249999999994
42
0.41421356237309503
10
150.50000462532043
20
56.506250000000009
10
150.50000462532043
20
53.406250000000057
42
-0.41421356237309503
10
150.00000462532043
20
52.906250000000057
10
148.80000462532041
20
52.90625000000005
42
-0.4142135623730846
10
148.30000462532041
20
53.406250000000057
10
148.30000462532041
20
56.506250000000009
42
0.41421356237309503
10
147.80000462532041
20
57.006250000000009
10
146.90000462532041
20
57.006249999999994
42
0.41421356237309503
10
146.40000462532041
20
56.506250000000009
10
146.40000462532041
20
50.506250000000001
42
-0.41421356237309503
10
145.90000462532041
20
50.006250000000001
10
90.987354315291469
20
50.006249999999994
42
-0.41421356237309503
10
90.487354315291455
20
50.506250000000001
10
90.487354315291455
20
56.506250000000009
42
0.41421356237309503
10
89.987354315291441
20
57.006250000000009
10
89.087354315291464
20
57.006249999999994
42
0.41421356237309503
10
88.587354315291464
20
56.506250000000009
10
88.587354315291478
20
53.406250000000057
42
-0.41421356237309503
10
88.087354315291464
20
52.906250000000057
10
86.887354315291475
20
52.90625000000005
42
-0.41421356237310542
10
86.387354315291446
20
53.406250000000057
10
86.387354315291446
20
56.506250000000009
42
0.41421356237309503
10
85.887354315291446
20
57.006250000000009
10
84.987354315291469
20
57.006249999999994
42
0.41421356237310542
10
84.487354315291441
20
56.506250000000009
10
84.487354315291441
20
50.506250000000001
42
-0.4142135623730846
10
83.987354315291469
20
50.006250000000001
10
-145.90000000000003
20
50.006249999999994
42
-0.41421356237307422
10
-146.40000000000001
20
50.506250000000001
10
-146.39999999999998
20
56.506250000000009
42
0.41421356237309503
10
-146.90000000000001
20
57.006250000000009
10
-147.80000000000001
20
57.006249999999994
42
0.41421356237309503
10
-148.30000000000001
20
56.506250000000009
10
-148.30000000000001
20
53.406249999999993
42
-0.41421356237309503
10
-148.80000000000001
20
52.906249999999993
10
-150
20
52.906249999999986
42
-0.41421356237309503
10
-150.5
20
53.406249999999993
10
-150.5
20
56.506250000000009
42
0.41421356237309503
10
-151
20
57.006250000000009
10
-151.90000000000001
20
57.006249999999994
42
0.41421356237310025
10
-152.40000000000003
20
56.506249999999994
10
-152.40000000000001
20
-56.506251782178865
42
0.41421356237310025
10
-151.90000000000001
20
-57.006251782178872
10
-151
20
-57.006251782178872
42
0.41421356237309503
10
-150.5
20
-56.506251782178872
10
-150.5
20
-53.406251782178927
42
-0.41421356237309503
10
-150
20
-52.906251782178934
10
-148.80000000000001
20
-52.906251782178906
42
-0.41421356237309503
0
LWPOLYLINE
5
369
100
AcDbEntity
8
0
100
AcDbPolyline
90
8
70
1
43
0.0
10
-77.456250000000026
20
-46.981250000000003
10
-77.456250000000026
20
-32.981249999999996
42
0.41421356237309243
10
-77.956250000000026
20
-32.481250000000003
10
-83.956250000000026
20
-32.481250000000003
42
0.41421356237309503
10
-84.45625000000004
20
-32.981250000000003
10
-84.456249999999997
20
-46.981250000000003
42
0.41421356237307422
10
-83.956250000000026
20
-47.481250000000003
10
-77.956250000000026
20
-47.48125000000001
42
0.41421356237309503
0
LWPOLYLINE
5
370
100
AcDbEntity
8
0
100
AcDbPolyline
90
24
70
1
43
0.0
10
61.91249999999998
20
-11.40625
10
61.91249999999998
20
6.6437500000000043
42
0.41421356237309437
10
61.41249999999998
20
7.1437500000000034
10
57.650000000000006
20
7.1437499999999963
42
-0.41421356237309437
10
57.149999999999999
20
7.6437500000000025
10
57.15000000000002
20
25.668750000000017
42
0.41421356237307944
10
56.650000000000048
20
26.168750000000024
10
-132.84999999999999
20
26.168749999999974
42
0.41421356237309503
10
-133.34999999999999
20
25.668749999999978
10
-133.34999999999999
20
7.6187500000000004
42
0.41421356237309503
10
-132.84999999999999
20
7.1187500000000004
10
-129.08750000000001
20
7.1187499999999879
42
-0.41421356237309503
10
-128.58750000000001
20
6.6187499999999986
10
-128.58750000000003
20
-11.431250000000002
42
0.41421356237309503
10
-128.08750000000001
20
-11.93125
10
-119.5625
20
-11.931249999999993
42
-0.41421356237309503
10
-119.0625
20
-12.43125
10
-119.0625
20
-30.481250000000003
42
0.41421356237309503
10
-118.5625
20
-30.981249999999999
10
70.937500000000014
20
-30.981249999999964
42
0.4142135623730846
10
71.4375
20
-30.481249999999967
10
71.4375
20
-12.406249999999998
42
0.41421356237309503
10
70.9375
20
-11.90625
10
62.412499999999973
20
-11.906249999999989
42
-0.41421356237309503
0
LINE
5
371
100
AcDbEntity
8
0
100
AcDbLine
10
-23.956250000000008
20
-33.981250000000003
30
0
11
-23.956250000000008
21
-34.00624999999998
31
0
0
LINE
5
372
100
AcDbEntity
8
0
100
AcDbLine
10
-37.955680886652203
20
-33.981293170608048
30
0
11
-37.956250000000004
21
-34.006249999999987
31
0
0
LINE
5
373
100
AcDbEntity
8
0
100
AcDbLine
10
-23.956250000000008
20
-46.981250000000003
30
0
11
-23.95687398509078
21
-47.006221898873946
31
0
0
LINE
5
374
100
AcDbEntity
8
0
100
AcDbLine
10
-37.955626010401474
20
-47.006221989017867
30
0
11
-37.956250000000004
21
-46.981250000000003
31
0
0
LINE
5
375
100
AcDbEntity
8
0
100
AcDbLine
10
149.875
20
33.981250000000003
30
0
11
149.87437618163372
21
33.956281435424934
31
0
0
LINE
5
376
100
AcDbEntity
8
0
100
AcDbLine
10
149.875
20
46.956249999999997
30
0
11
149.87437687129503
21
46.981204767392256
31
0
0
LINE
5
377
100
AcDbEntity
8
0
100
AcDbLine
10
135.87562381739502
20
33.95628145485049
30
0
11
135.875
21
33.981250000000003
31
0
0
LINE
5
378
100
AcDbEntity
8
0
100
AcDbLine
10
135.875
20
46.956249999999997
30
0
11
135.87562312687203
21
46.981204730712875
31
0
0
LINE
5
379
100
AcDbEntity
8
0
100
AcDbLine
10
130.82499999999999
20
33.981250000000003
30
0
11
130.82437618163371
21
33.956281435424934
31
0
0
LINE
5
380
100
AcDbEntity
8
0
100
AcDbLine
10
130.82499999999999
20
46.956249999999997
30
0
11
130.82437687129502
21
46.981204767392256
31
0
0
LINE
5
381
100
AcDbEntity
8
0
100
AcDbLine
10
116.82562381739503
20
33.95628145485049
30
0
11
116.82499999999999
21
33.981250000000003
31
0
0
LINE
5
382
100
AcDbEntity
8
0
100
AcDbLine
10
116.82499999999999
20
46.956249999999997
30
0
11
116.82562312687205
21
46.981204730712882
31
0
0
LINE
5
383
100
AcDbEntity
8
0
100
AcDbLine
10
111.77500000000001
20
33.981250000000003
30
0
11
111.77437618163373
21
33.956281435424927
31
0
0
LINE
5
384
100
AcDbEntity
8
0
100
AcDbLine
10
111.77500000000001
20
46.956249999999997
30
0
11
111.77437687129505
21
46.981204767392235
31
0
0
LINE
5
385
100
AcDbEntity
8
0
100
AcDbLine
10
97.775623817395029
20
33.956281454850483
30
0
11
97.77500000000002
21
33.981250000000003
31
0
0
LINE
5
386
100
AcDbEntity
8
0
100
AcDbLine
10
97.77500000000002
20
46.956249999999997
30
0
11
97.775623126872063
21
46.981204730712861
31
0
0
LINE
5
387
100
AcDbEntity
8
0
100
AcDbLine
10
-135.875
20
33.981250000000003
30
0
11
-135.87562381836628
21
33.956281435424934
31
0
0
LINE
5
388
100
AcDbEntity
8
0
100
AcDbLine
10
-135.875
20
46.956249999999997
30
0
11
-135.87562312870497
21
46.981204767392235
31
0
0
LINE
5
389
100
AcDbEntity
8
0
100
AcDbLine
10
-149.87437618260498
20
33.956281454850483
30
0
11
-149.875
21
33.981250000000003
31
0
0
LINE
5
390
100
AcDbEntity
8
0
100
AcDbLine
10
-149.875
20
46.956249999999997
30
0
11
-149.87437687312794
21
46.981204730712875
31
0
0
LINE
5
391
100
AcDbEntity
8
0
100
AcDbLine
10
-54.912500000000009
20
33.981250000000003
30
0
11
-54.913123818366294
21
33.956281435424934
31
0
0
LINE
5
392
100
AcDbEntity
8
0
100
AcDbLine
10
-54.912500000000009
20
46.956249999999997
30
0
11
-54.913123128704996
21
46.981204767392228
31
0
0
LINE
5
393
100
AcDbEntity
8
0
100
AcDbLine
10
-68.911876182604999
20
33.956281454850476
30
0
11
-68.912500000000009
21
33.981250000000003
31
0
0
LINE
5
394
100
AcDbEntity
8
0
100
AcDbLine
10
-68.912500000000009
20
46.956249999999997
30
0
11
-68.911876873127952
21
46.981204730712882
31
0
0
LINE
5
395
100
AcDbEntity
8
0
100
AcDbLine
10
-73.962500000000006
20
33.981250000000003
30
0
11
-73.963123818366299
21
33.956281435424934
31
0
0
LINE
5
396
100
AcDbEntity
8
0
100
AcDbLine
10
-73.962500000000006
20
46.956249999999997
30
0
11
-73.963123128704993
21
46.981204767392214
31
0
0
LINE
5
397
100
AcDbEntity
8
0
100
AcDbLine
10
-87.961876182604982
20
33.956281454850476
30
0
11
-87.96250000000002
21
33.981250000000003
31
0
0
LINE
5
398
100
AcDbEntity
8
0
100
AcDbLine
10
-87.96250000000002
20
46.956249999999997
30
0
11
-87.961876873127963
21
46.981204730712882
31
0
0
LINE
5
399
100
AcDbEntity
8
0
100
AcDbLine
10
-93.012500000000017
20
33.981250000000003
30
0
11
-93.013123818366296
21
33.956281435424934
31
0
0
LINE
5
400
100
AcDbEntity
8
0
100
AcDbLine
10
-93.012500000000017
20
46.956249999999997
30
0
11
-93.013123128705004
21
46.981204767392235
31
0
0
LINE
5
401
100
AcDbEntity
8
0
100
AcDbLine
10
-107.01187618260498
20
33.956281454850483
30
0
11
-107.0125
21
33.981250000000003
31
0
0
LINE
5
402
100
AcDbEntity
8
0
100
AcDbLine
10
-107.0125
20
46.956249999999997
30
0
11
-107.01187687312796
21
46.981204730712875
31
0
0
LINE
5
403
100
AcDbEntity
8
0
100
AcDbLine
10
-112.0625
20
33.981250000000003
30
0
11
-112.06312381836631
21
33.956281435424948
31
0
0
LINE
5
404
100
AcDbEntity
8
0
100
AcDbLine
10
-112.0625
20
46.956249999999997
30
0
11
-112.06312312870497
21
46.981204767392214
31
0
0
LINE
5
405
100
AcDbEntity
8
0
100
AcDbLine
10
-126.06187618260495
20
33.956281454850483
30
0
11
-126.06250000000001
21
33.981250000000003
31
0
0
LINE
5
406
100
AcDbEntity
8
0
100
AcDbLine
10
-126.06250000000001
20
46.956249999999997
30
0
11
-126.06187687312794
21
46.981204730712882
31
0
0
LINE
5
407
100
AcDbEntity
8
0
100
AcDbLine
10
26.049999999999976
20
33.981250000000003
30
0
11
26.04937618163369
21
33.956281435424941
31
0
0
LINE
5
408
100
AcDbEntity
8
0
100
AcDbLine
10
26.049999999999976
20
46.956249999999997
30
0
11
26.049376871294989
21
46.981204767392235
31
0
0
LINE
5
409
100
AcDbEntity
8
0
100
AcDbLine
10
12.050623817395007
20
33.956281454850483
30
0
11
12.049999999999981
21
33.981250000000003
31
0
0
LINE
5
410
100
AcDbEntity
8
0
100
AcDbLine
10
12.049999999999981
20
46.956249999999997
30
0
11
12.050623126872047
21
46.981204730712875
31
0
0
LINE
5
411
100
AcDbEntity
8
0
100
AcDbLine
10
7.0000000000000009
20
33.981250000000003
30
0
11
6.999376181633707
21
33.956281435424934
31
0
0
LINE
5
412
100
AcDbEntity
8
0
100
AcDbLine
10
7.0000000000000009
20
46.956249999999997
30
0
11
6.9993768712950102
21
46.981204767392228
31
0
0
LINE
5
413
100
AcDbEntity
8
0
100
AcDbLine
10
-6.9993761826049745
20
33.95628145485049
30
0
11
-7.0000000000000009
21
33.981250000000003
31
0
0
LINE
5
414
100
AcDbEntity
8
0
100
AcDbLine
10
-7.0000000000000009
20
46.956249999999997
30
0
11
-6.9993768731279431
21
46.981204730712875
31
0
0
LINE
5
415
100
AcDbEntity
8
0
100
AcDbLine
10
-12.05000000000001
20
33.981250000000003
30
0
11
-12.050623818366304
21
33.956281435424934
31
0
0
LINE
5
416
100
AcDbEntity
8
0
100
AcDbLine
10
-12.05000000000001
20
46.956249999999997
30
0
11
-12.050623128704995
21
46.981204767392214
31
0
0
LINE
5
417
100
AcDbEntity
8
0
100
AcDbLine
10
-26.049376182604981
20
33.956281454850483
30
0
11
-26.050000000000004
21
33.981250000000003
31
0
0
LINE
5
418
100
AcDbEntity
8
0
100
AcDbLine
10
-26.050000000000004
20
46.956249999999997
30
0
11
-26.049376873127954
21
46.981204730712875
31
0
0
LINE
5
419
100
AcDbEntity
8
0
100
AcDbLine
10
-31.100000000000012
20
33.981250000000003
30
0
11
-31.100623818366309
21
33.956281435424941
31
0
0
LINE
5
420
100
AcDbEntity
8
0
100
AcDbLine
10
-31.100000000000012
20
46.956249999999997
30
0
11
-31.100623128704999
21
46.981204767392235
31
0
0
LINE
5
421
100
AcDbEntity
8
0
100
AcDbLine
10
-45.099376182604985
20
33.956281454850497
30
0
11
-45.100000000000009
21
33.981250000000003
31
0
0
LINE
5
422
100
AcDbEntity
8
0
100
AcDbLine
10
-45.100000000000009
20
46.956249999999997
30
0
11
-45.099376873127937
21
46.981204730712875
31
0
0
LINE
5
423
100
AcDbEntity
8
0
100
AcDbLine
10
49.862499999999983
20
33.981250000000003
30
0
11
49.861876181633697
21
33.956281435424934
31
0
0
LINE
5
424
100
AcDbEntity
8
0
100
AcDbLine
10
49.862499999999983
20
46.956249999999997
30
0
11
49.861876871295003
21
46.981204767392235
31
0
0
LINE
5
425
100
AcDbEntity
8
0
100
AcDbLine
10
35.863123817395007
20
33.956281454850497
30
0
11
35.862499999999976
21
33.981250000000003
31
0
0
LINE
5
426
100
AcDbEntity
8
0
100
AcDbLine
10
35.862499999999976
20
46.956249999999997
30
0
11
35.863123126872047
21
46.981204730712861
31
0
0
LINE
5
427
100
AcDbEntity
8
0
100
AcDbLine
10
68.912500000000009
20
33.981250000000003
30
0
11
68.911876181633701
21
33.956281435424934
31
0
0
LINE
5
428
100
AcDbEntity
8
0
100
AcDbLine
10
68.912500000000009
20
46.956249999999997
30
0
11
68.911876871295007
21
46.981204767392228
31
0
0
LINE
5
429
100
AcDbEntity
8
0
100
AcDbLine
10
54.913123817395011
20
33.95628145485049
30
0
11
54.91249999999998
21
33.981250000000003
31
0
0
LINE
5
430
100
AcDbEntity
8
0
100
AcDbLine
10
54.91249999999998
20
46.956249999999997
30
0
11
54.913123126872051
21
46.981204730712861
31
0
0
LINE
5
431
100
AcDbEntity
8
0
100
AcDbLine
10
87.96250000000002
20
33.981250000000003
30
0
11
87.961876181633713
21
33.956281435424927
31
0
0
LINE
5
432
100
AcDbEntity
8
0
100
AcDbLine
10
87.96250000000002
20
46.956249999999997
30
0
11
87.961876871295033
21
46.981204767392235
31
0
0
LINE
5
433
100
AcDbEntity
8
0
100
AcDbLine
10
73.963123817395029
20
33.956281454850483
30
0
11
73.962500000000006
21
33.981250000000003
31
0
0
LINE
5
434
100
AcDbEntity
8
0
100
AcDbLine
10
73.962500000000006
20
46.956249999999997
30
0
11
73.963123126872063
21
46.981204730712875
31
0
0
LINE
5
435
100
AcDbEntity
8
0
100
AcDbLine
10
-149.875
20
23.168749999999999
30
0
11
-149.87437687312794
21
23.168704730712875
31
0
0
LINE
5
436
100
AcDbEntity
8
0
100
AcDbLine
10
-135.875
20
23.168749999999996
30
0
11
-135.87562312870497
21
23.168704767392239
31
0
0
LINE
5
437
100
AcDbEntity
8
0
100
AcDbLine
10
66.818749999999994
20
23.168749999999999
30
0
11
66.819373126872051
21
23.168704730712882
31
0
0
LINE
5
438
100
AcDbEntity
8
0
100
AcDbLine
10
80.81874999999998
20
23.168749999999996
30
0
11
80.818126871295007
21
23.168704767392228
31
0
0
LINE
5
439
100
AcDbEntity
8
0
100
AcDbLine
10
-147.49375000000001
20
4.1187499999999986
30
0
11
-147.49312687312795
21
4.1187047307128779
31
0
0
LINE
5
440
100
AcDbEntity
8
0
100
AcDbLine
10
-133.49375000000003
20
4.1187499999999968
30
0
11
-133.49437312870498
21
4.1187047673922264
31
0
0
LINE
5
441
100
AcDbEntity
8
0
100
AcDbLine
10
69.199999999999989
20
4.1187499999999986
30
0
11
69.200623126872046
21
4.1187047307128779
31
0
0
LINE
5
442
100
AcDbEntity
8
0
100
AcDbLine
10
83.200000000000003
20
4.1187499999999968
30
0
11
83.199376871295016
21
4.1187047673922343
31
0
0
LINE
5
443
100
AcDbEntity
8
0
100
AcDbLine
10
-142.73124999999999
20
-14.93125
30
0
11
-142.73062687312793
21
-14.931295269287119
31
0
0
LINE
5
444
100
AcDbEntity
8
0
100
AcDbLine
10
-128.73124999999999
20
-14.93125
30
0
11
-128.73187312870496
21
-14.931295232607763
31
0
0
LINE
5
445
100
AcDbEntity
8
0
100
AcDbLine
10
73.962500000000006
20
-14.93125
30
0
11
73.963123126872063
21
-14.931295269287117
31
0
0
LINE
5
446
100
AcDbEntity
8
0
100
AcDbLine
10
87.96250000000002
20
-14.93125
30
0
11
87.961876871295033
21
-14.931295232607759
31
0
0
LINE
5
447
100
AcDbEntity
8
0
100
AcDbLine
10
-147.49375000000001
20
-33.981250000000003
30
0
11
-147.49312687312795
21
-33.981295269287102
31
0
0
LINE
5
448
100
AcDbEntity
8
0
100
AcDbLine
10
-133.49375000000003
20
-33.981249999999996
30
0
11
-133.49437312870498
21
-33.981295232607742
31
0
0
LINE
5
449
100
AcDbEntity
8
0
100
AcDbLine
10
-107.0125
20
-33.981250000000003
30
0
11
-107.01187687312796
21
-33.981295269287124
31
0
0
LINE
5
450
100
AcDbEntity
8
0
100
AcDbLine
10
-93.012500000000017
20
-33.981249999999996
30
0
11
-93.01312312870499
21
-33.981295232607756
31
0
0
LINE
5
451
100
AcDbEntity
8
0
100
AcDbLine
10
31.099999999999991
20
-33.981250000000003
30
0
11
31.100623126872051
21
-33.981295269287116
31
0
0
LINE
5
452
100
AcDbEntity
8
0
100
AcDbLine
10
45.099999999999987
20
-33.981249999999996
30
0
11
45.099376871295
21
-33.981295232607764
31
0
0
LINE
5
453
100
AcDbEntity
8
0
100
AcDbLine
10
71.581249999999983
20
-33.981250000000003
30
0
11
71.581873126872026
21
-33.981295269287109
31
0
0
LINE
5
454
100
AcDbEntity
8
0
100
AcDbLine
10
85.581249999999983
20
-33.981249999999996
30
0
11
85.580626871294996
21
-33.981295232607749
31
0
0
LINE
5
455
100
AcDbEntity
8
0
100
AcDbLine
10
149.875
20
10.168749999999999
30
0
11
149.87437618163372
21
10.143781435424934
31
0
0
LINE
5
456
100
AcDbEntity
8
0
100
AcDbLine
10
149.875
20
23.143750000000001
30
0
11
149.87437687129503
21
23.168704767392242
31
0
0
LINE
5
457
100
AcDbEntity
8
0
100
AcDbLine
10
135.87562381739502
20
10.143781454850478
30
0
11
135.875
21
10.168749999999999
31
0
0
LINE
5
458
100
AcDbEntity
8
0
100
AcDbLine
10
135.875
20
23.143750000000001
30
0
11
135.87562312687203
21
23.168704730712875
31
0
0
LINE
5
459
100
AcDbEntity
8
0
100
AcDbLine
10
130.82499999999999
20
10.168749999999999
30
0
11
130.82437618163371
21
10.143781435424934
31
0
0
LINE
5
460
100
AcDbEntity
8
0
100
AcDbLine
10
130.82499999999999
20
23.143750000000001
30
0
11
130.82437687129502
21
23.168704767392242
31
0
0
LINE
5
461
100
AcDbEntity
8
0
100
AcDbLine
10
116.82562381739503
20
10.143781454850487
30
0
11
116.82499999999999
21
10.168749999999999
31
0
0
LINE
5
462
100
AcDbEntity
8
0
100
AcDbLine
10
116.82499999999999
20
23.143750000000001
30
0
11
116.82562312687207
21
23.1687047307129
31
0
0
LINE
5
463
100
AcDbEntity
8
0
100
AcDbLine
10
111.77500000000001
20
10.168749999999999
30
0
11
111.77437618163373
21
10.143781435424943
31
0
0
LINE
5
464
100
AcDbEntity
8
0
100
AcDbLine
10
111.77500000000001
20
23.143750000000001
30
0
11
111.77437687129505
21
23.168704767392235
31
0
0
LINE
5
465
100
AcDbEntity
8
0
100
AcDbLine
10
97.775623817395029
20
10.14378145485048
30
0
11
97.77500000000002
21
10.168749999999999
31
0
0
LINE
5
466
100
AcDbEntity
8
0
100
AcDbLine
10
97.77500000000002
20
23.143750000000001
30
0
11
97.775623126872063
21
23.168704730712882
31
0
0
LINE
5
467
100
AcDbEntity
8
0
100
AcDbLine
10
149.875
20
-46.981250000000003
30
0
11
149.87437618163372
21
-47.006218564575057
31
0
0
LINE
5
468
100
AcDbEntity
8
0
100
AcDbLine
10
149.875
20
-34.00624999999998
30
0
11
149.87437687129503
21
-33.981295232607735
31
0
0
LINE
5
469
100
AcDbEntity
8
0
100
AcDbLine
10
135.87562381739502
20
-47.006218545149508
30
0
11
135.875
21
-46.981250000000003
31
0
0
LINE
5
470
100
AcDbEntity
8
0
100
AcDbLine
10
135.875
20
-34.006249999999987
30
0
11
135.87562312687203
21
-33.981295269287116
31
0
0
LINE
5
471
100
AcDbEntity
8
0
100
AcDbLine
10
130.82499999999999
20
-46.981250000000003
30
0
11
130.82437618163371
21
-47.006218564575057
31
0
0
LINE
5
472
100
AcDbEntity
8
0
100
AcDbLine
10
130.82499999999999
20
-34.00624999999998
30
0
11
130.82437687129502
21
-33.981295232607735
31
0
0
LINE
5
473
100
AcDbEntity
8
0
100
AcDbLine
10
116.82562381739503
20
-47.006218545149522
30
0
11
116.82499999999999
21
-46.981250000000003
31
0
0
LINE
5
474
100
AcDbEntity
8
0
100
AcDbLine
10
116.82499999999999
20
-34.006249999999987
30
0
11
116.82562312687207
21
-33.981295269287102
31
0
0
LINE
5
475
100
AcDbEntity
8
0
100
AcDbLine
10
111.77500000000001
20
-46.981250000000003
30
0
11
111.77437618163374
21
-47.006218564575065
31
0
0
LINE
5
476
100
AcDbEntity
8
0
100
AcDbLine
10
111.77500000000001
20
-34.00624999999998
30
0
11
111.77437687129505
21
-33.981295232607764
31
0
0
LINE
5
477
100
AcDbEntity
8
0
100
AcDbLine
10
97.775623817395015
20
-47.006218545149522
30
0
11
97.77500000000002
21
-46.981250000000003
31
0
0
LINE
5
478
100
AcDbEntity
8
0
100
AcDbLine
10
97.77500000000002
20
-34.006249999999987
30
0
11
97.775623126872063
21
-33.981295269287102
31
0
0
LINE
5
479
100
AcDbEntity
8
0
100
AcDbLine
10
130.82499999999999
20
-27.931249999999999
30
0
11
130.82437618163371
21
-27.95621856457506
31
0
0
LINE
5
480
100
AcDbEntity
8
0
100
AcDbLine
10
130.82499999999999
20
-14.956250000000001
30
0
11
130.82437687129502
21
-14.931295232607763
31
0
0
LINE
5
481
100
AcDbEntity
8
0
100
AcDbLine
10
116.82562381739503
20
-27.956218545149511
30
0
11
116.82499999999999
21
-27.931249999999999
31
0
0
LINE
5
482
100
AcDbEntity
8
0
100
AcDbLine
10
116.82499999999999
20
-14.956250000000001
30
0
11
116.82562312687207
21
-14.931295269287116
31
0
0
ENDSEC
0
SECTION
2
OBJECTS
0
DICTIONARY
5
C
100
AcDbDictionary
3
ACAD_GROUP
350
D
3
ACAD_MLINESTYLE
350
17
0
DICTIONARY
5
D
100
AcDbDictionary
0
DICTIONARY
5
1A
330
C
100
AcDbDictionary
0
DICTIONARY
5
17
100
AcDbDictionary
0
ENDSEC
0
EOF
